<svg width="22" height="22" viewBox="0 0 22 22" fill="none" xmlns="http://www.w3.org/2000/svg">
<path fill-rule="evenodd" clip-rule="evenodd" d="M12.8334 12.8334C12.8334 13.3397 12.423 13.75 11.9167 13.75H2.14213C1.94415 14.1669 1.83337 14.633 1.83337 15.1251C1.83337 16.8971 3.26979 18.3335 5.04171 18.3335H16.9584C18.7303 18.3335 20.1667 16.8971 20.1667 15.1251C20.1667 13.5088 18.9715 12.1716 17.4167 11.9493V8.25009C17.4167 5.6904 15.0012 4.23833 12.8334 3.2085V12.8334Z" fill="#47C56A" fill-opacity="0.5"/>
<path fill-rule="evenodd" clip-rule="evenodd" d="M11 21.0835C9.29143 21.0835 7.85589 19.9149 7.44885 18.3335H9.41188C9.72886 18.8815 10.3214 19.2502 11 19.2502C11.6785 19.2502 12.2711 18.8815 12.588 18.3335H14.5511C14.1441 19.915 12.7085 21.0835 11 21.0835Z" fill="#144E46"/>
<path fill-rule="evenodd" clip-rule="evenodd" d="M9.30127 2.06045C6.58184 2.80514 4.58337 5.2941 4.58337 8.24984V11.949C3.02857 12.1714 1.83337 13.5086 1.83337 15.1248C1.83337 16.8968 3.26979 18.3332 5.04171 18.3332H16.9584C18.7303 18.3332 20.1667 16.8968 20.1667 15.1248C20.1667 13.5086 18.9715 12.1714 17.4167 11.949V8.24984C17.4167 5.2941 15.4183 2.80514 12.6988 2.06045C12.6075 1.83539 12.4715 1.62855 12.2964 1.45348C11.9525 1.10965 11.4862 0.916504 11 0.916504C10.5138 0.916504 10.0475 1.10965 9.70369 1.45348C9.52861 1.62855 9.39257 1.83539 9.30127 2.06045ZM6.41671 8.24984C6.41671 5.71854 8.46874 3.6665 11 3.6665C13.5313 3.6665 15.5834 5.71854 15.5834 8.24984V12.8332C15.5834 13.3394 15.9938 13.7498 16.5 13.7498H16.9584C17.7177 13.7498 18.3334 14.3655 18.3334 15.1248C18.3334 15.8842 17.7177 16.4998 16.9584 16.4998H5.04171C4.28231 16.4998 3.66671 15.8842 3.66671 15.1248C3.66671 14.3655 4.28231 13.7498 5.04171 13.7498H5.50004C6.0063 13.7498 6.41671 13.3394 6.41671 12.8332V8.24984Z" fill="#144E46"/>
</svg>
