<svg width="66" height="21" viewBox="0 0 66 21" fill="none" xmlns="http://www.w3.org/2000/svg">
<path d="M36.1563 2.89024C39.3778 1.00454 42.8999 1.92229 44.8699 4.12749C46.9396 6.43021 47.2235 9.85079 45.5374 12.4381C44.5364 13.9541 43.1671 14.9366 41.398 15.3733C39.6289 15.8099 37.9086 15.4999 36.323 14.6455V18.842C36.323 19.8608 35.6889 20.6272 34.7542 20.6941C33.7859 20.7771 32.9676 20.0595 32.9181 19.0588C32.9013 18.858 32.9181 18.6578 32.9181 18.4576V3.89168C32.9089 3.6265 32.9426 3.36158 33.0178 3.10713C33.2515 2.48923 33.6854 2.10568 34.337 2.00525C34.9544 1.88881 35.4887 2.10568 35.9226 2.57293C36.0084 2.67265 36.0865 2.77872 36.1563 2.89024ZM36.3397 8.69726C36.24 10.2664 37.5585 12.1856 39.8116 12.1856C41.7147 12.2023 43.2675 10.6332 43.2843 8.71399C43.2843 6.7781 41.7481 5.20971 39.8116 5.22644C37.6254 5.24318 36.256 7.09543 36.3397 8.69726Z" fill="black"/>
<path d="M26.1262 3.27432C26.2434 3.19135 26.2434 3.09091 26.2762 3.00722C26.6271 2.27288 27.3617 1.88934 28.1465 2.03926C28.5183 2.10789 28.856 2.30032 29.1045 2.58523C29.353 2.87014 29.4977 3.23076 29.5151 3.60837V13.7712C29.5267 14.0378 29.487 14.3042 29.3979 14.5557C29.1307 15.2232 28.6306 15.6067 27.9128 15.6569C27.2117 15.6904 26.6752 15.3731 26.3264 14.7727C26.2699 14.6701 26.2199 14.5641 26.1765 14.4553C26.0592 14.4219 25.993 14.5223 25.926 14.5725C22.0027 17.3592 16.6074 15.3898 15.3429 10.6505C14.3746 7.0457 16.4443 3.25758 19.9498 2.1921C22.0027 1.55746 23.9538 1.87478 25.7593 3.05962C25.8922 3.11132 26.016 3.18379 26.1262 3.27432ZM18.5308 8.84846C18.5286 9.16923 18.5679 9.48902 18.648 9.79967C19.2654 12.2196 22.1032 13.2537 24.0397 11.7523C25.776 10.4168 25.9427 7.83025 24.4037 6.27863C23.6029 5.47806 22.6179 5.1098 21.483 5.29393C19.7496 5.59378 18.5476 7.06244 18.5308 8.84846Z" fill="black"/>
<path d="M54.6399 5.88796C54.6499 5.89974 54.6622 5.90922 54.6762 5.91572C54.6901 5.92222 54.7054 5.92559 54.7208 5.92559C54.7362 5.92559 54.7514 5.92222 54.7653 5.91572C54.7793 5.90922 54.7917 5.89974 54.8016 5.88796C55.2253 5.37123 55.6483 4.86906 56.0567 4.38362C56.5743 3.76573 57.0759 3.14638 57.5928 2.5314C58.0602 1.9972 58.644 1.76358 59.3451 1.94917C59.6009 2.01536 59.8375 2.14093 60.0356 2.31568C60.2337 2.49043 60.3879 2.70942 60.4855 2.95488C60.5831 3.20034 60.6214 3.46536 60.5973 3.7284C60.5732 3.99144 60.4874 4.2451 60.3469 4.46878C60.2225 4.65646 60.083 4.83366 59.9297 4.9986C58.995 6.13323 58.0602 7.25478 57.1087 8.38648C56.8124 8.75693 56.9063 8.63391 57.2077 9.04146L60.1197 12.5181C61.0203 13.4868 60.6294 14.9497 59.415 15.3434C58.7474 15.5617 58.0464 15.3434 57.579 14.7757C56.7439 13.7742 55.9264 12.7896 55.0913 11.7918C55.0083 11.6913 54.9414 11.6077 54.8577 11.5079C54.6909 11.3078 54.6742 11.3078 54.5075 11.5247C53.7561 12.4089 53.0216 13.31 52.2703 14.1942C52.1036 14.3951 51.9529 14.5952 51.7862 14.7765C51.152 15.5108 50.1168 15.6272 49.3837 15.0268C48.6324 14.4096 48.5494 13.358 49.1653 12.5902C50.2005 11.3391 51.235 10.1041 52.2703 8.86897C52.4705 8.61863 52.4705 8.61863 52.2703 8.38503C51.2685 7.18341 50.2675 5.9833 49.2658 4.797C48.8602 4.31521 48.6419 3.79775 48.8122 3.17913C48.8801 2.88805 49.0239 2.62014 49.229 2.40269C49.4341 2.18522 49.6931 2.02597 49.9798 1.94114C50.2665 1.85631 50.5705 1.84894 50.8609 1.91976C51.1514 1.99059 51.4179 2.1371 51.6333 2.34436C51.733 2.44479 51.8335 2.56269 51.9332 2.67841C52.7093 3.6158 54.2673 5.44983 54.6399 5.88796Z" fill="#8DBC1A"/>
<path d="M7.3172 1.56292C9.13724 1.56292 10.7061 2.18082 12.0747 3.34891C12.8428 4.0163 12.9425 5.08396 12.2931 5.80157C12.0257 6.10514 11.6579 6.30251 11.257 6.35768C10.8561 6.41285 10.4487 6.32216 10.1091 6.10214C9.95913 6.0017 9.84194 5.8838 9.69194 5.78483C7.93816 4.36637 5.21394 4.80013 3.9785 6.66982C2.60983 8.73895 3.74481 11.5926 6.21569 12.2265C7.5174 12.5605 8.70258 12.3269 9.75457 11.4754C10.2882 11.0249 10.8896 10.875 11.5403 11.1253C11.7925 11.219 12.0187 11.3715 12.1999 11.5701C12.3812 11.7687 12.5124 12.0078 12.5827 12.2673C12.6529 12.5269 12.6601 12.7995 12.6036 13.0624C12.5472 13.3253 12.4288 13.5709 12.2582 13.7789C12.1208 13.9262 11.9749 14.0654 11.8214 14.1959C10.2198 15.4331 8.39974 15.9811 6.37949 15.7148C3.75865 15.3509 1.80538 13.979 0.670409 11.5926C-0.998924 8.07154 0.470205 3.51412 4.84338 1.97995C5.63545 1.69054 6.47398 1.54919 7.3172 1.56292Z" fill="black"/>
<path d="M62.8165 0.356216H62.249V0H63.7924V0.356216H63.225V1.89251H62.8148V0.356216H62.8165Z" fill="black"/>
<path d="M65.6152 1.89434L65.6135 0.758101L65.0922 1.6934H64.9076L64.388 0.781845V1.89434H64.0034V0H64.3418L65.005 1.17642L65.6579 0H65.9946L65.9998 1.89434H65.6152Z" fill="black"/>
</svg>
