<svg width="14" height="23" viewBox="0 0 14 23" fill="none" xmlns="http://www.w3.org/2000/svg">
<path d="M3.71826 21.8511C3.62422 21.8508 3.53132 21.8305 3.4458 21.7914C3.36028 21.7522 3.28413 21.6953 3.22246 21.6243C3.16079 21.5533 3.11503 21.4699 3.08826 21.3798C3.06149 21.2896 3.05433 21.1948 3.06726 21.1016L4.37976 11.9141C4.40447 11.7418 4.49662 11.5864 4.63594 11.482C4.77525 11.3777 4.95032 11.3329 5.12263 11.3576C5.29494 11.3824 5.45037 11.4745 5.55474 11.6138C5.6591 11.7531 5.70385 11.9282 5.67913 12.1005L4.75513 18.5672L11.6458 8.72607H8.96826C8.85653 8.72596 8.74668 8.69732 8.64911 8.64287C8.55155 8.58842 8.4695 8.50996 8.41075 8.41493C8.35199 8.31989 8.31848 8.21143 8.31337 8.09982C8.30826 7.98821 8.33174 7.87714 8.38157 7.77714L11.1877 2.16357H5.48619L2.04088 11.3511L4.93625 11.3576C5.11029 11.3576 5.27721 11.4268 5.40028 11.5498C5.52336 11.6729 5.5925 11.8398 5.5925 12.0139C5.5925 12.1879 5.52336 12.3549 5.40028 12.4779C5.27721 12.601 5.11029 12.6701 4.93625 12.6701L1.09326 12.6636C0.987489 12.6627 0.883488 12.6364 0.79001 12.5869C0.696532 12.5374 0.616313 12.4662 0.556107 12.3792C0.495902 12.2922 0.457472 12.1921 0.444054 12.0872C0.430637 11.9822 0.442624 11.8756 0.479006 11.7763L4.41651 1.27632C4.46349 1.15138 4.54746 1.04374 4.65721 0.967761C4.76696 0.89178 4.89727 0.851074 5.03076 0.851074H12.2495C12.3612 0.85119 12.4711 0.879829 12.5686 0.93428C12.6662 0.988731 12.7483 1.06719 12.807 1.16222C12.8658 1.25726 12.8993 1.36572 12.9044 1.47733C12.9095 1.58894 12.886 1.70001 12.8362 1.80001L10.0301 7.41357H12.9058C13.0258 7.41368 13.1435 7.4467 13.2461 7.50905C13.3486 7.5714 13.4321 7.66069 13.4875 7.7672C13.5429 7.87371 13.5679 7.99337 13.56 8.11314C13.5521 8.23291 13.5115 8.34822 13.4426 8.44651L4.25507 21.5715C4.1946 21.6578 4.11425 21.7282 4.02082 21.7769C3.92738 21.8255 3.8236 21.851 3.71826 21.8511Z" fill="#195F56" stroke="#195F56" stroke-width="0.5"/>
</svg>
