<svg width="14" height="22" viewBox="0 0 14 22" fill="none" xmlns="http://www.w3.org/2000/svg">
<path d="M5.04911 11.9029L3.74889 21.0045L12.8505 8.00223H9.20821L12.3037 1.5011H5.04911L1.14844 11.9029H5.04911Z" fill="#47C56A"/>
<path d="M3.74887 21.6547C3.65571 21.6545 3.56367 21.6343 3.47896 21.5955C3.39424 21.5568 3.3188 21.5003 3.25771 21.43C3.19661 21.3597 3.15128 21.2771 3.12476 21.1878C3.09824 21.0985 3.09115 21.0045 3.10395 20.9123L4.40418 11.8107C4.42866 11.64 4.51995 11.486 4.65797 11.3826C4.79598 11.2792 4.96941 11.2349 5.14011 11.2594C5.3108 11.2839 5.46478 11.3752 5.56817 11.5132C5.67156 11.6512 5.71589 11.8246 5.6914 11.9953L4.77604 18.4015L11.6022 8.65243H8.94977C8.83908 8.65231 8.73026 8.62394 8.63361 8.57C8.53696 8.51606 8.45568 8.43833 8.39748 8.34419C8.33927 8.25004 8.30606 8.1426 8.30101 8.03203C8.29595 7.92146 8.3192 7.81143 8.36857 7.71236L11.1484 2.1513H5.50027L2.08718 11.2529L4.95546 11.2594C5.12789 11.2594 5.29324 11.3279 5.41516 11.4498C5.53708 11.5717 5.60558 11.7371 5.60558 11.9095C5.60558 12.0819 5.53708 12.2473 5.41516 12.3692C5.29324 12.4911 5.12789 12.5596 4.95546 12.5596L1.14841 12.5531C1.04364 12.5522 0.940608 12.5261 0.848004 12.4771C0.7554 12.4281 0.675931 12.3575 0.616289 12.2714C0.556646 12.1852 0.518576 12.086 0.505284 11.9821C0.491992 11.8781 0.503867 11.7725 0.539908 11.6742L4.44059 1.27235C4.48713 1.14857 4.57032 1.04194 4.67904 0.966669C4.78776 0.891399 4.91685 0.851074 5.04909 0.851074H12.2003C12.311 0.851189 12.4198 0.87956 12.5165 0.933502C12.6131 0.987444 12.6944 1.06517 12.7526 1.15931C12.8108 1.25346 12.844 1.3609 12.8491 1.47147C12.8542 1.58204 12.8309 1.69207 12.7815 1.79114L10.0016 7.3522H12.8504C12.9694 7.3523 13.086 7.38502 13.1876 7.44679C13.2892 7.50855 13.3719 7.59701 13.4268 7.70252C13.4816 7.80804 13.5064 7.92657 13.4986 8.04522C13.4907 8.16388 13.4505 8.27811 13.3822 8.37548L4.28066 21.3777C4.22075 21.4632 4.14116 21.533 4.0486 21.5812C3.95603 21.6294 3.85323 21.6546 3.74887 21.6547Z" fill="#195F56" stroke="#195F56" stroke-width="0.5"/>
</svg>
