<svg width="22" height="21" viewBox="0 0 22 21" fill="none" xmlns="http://www.w3.org/2000/svg">
<path d="M1 5.80933V16.851C1 17.6467 1.31607 18.4097 1.87868 18.9723C2.44129 19.535 3.20435 19.851 4 19.851H18C18.7957 19.851 19.5587 19.535 20.1213 18.9723C20.6839 18.4097 21 17.6467 21 16.851V7.80933C21 6.70476 20.1046 5.80933 19 5.80933H1ZM16 15.851C15.8022 15.851 15.6089 15.7924 15.4444 15.6825C15.28 15.5726 15.1518 15.4164 15.0761 15.2337C15.0004 15.051 14.9806 14.8499 15.0192 14.6559C15.0578 14.462 15.153 14.2838 15.2929 14.1439C15.4327 14.0041 15.6109 13.9088 15.8049 13.8702C15.9989 13.8317 16.2 13.8515 16.3827 13.9271C16.5654 14.0028 16.7216 14.131 16.8315 14.2955C16.9414 14.4599 17 14.6532 17 14.851C17 15.1162 16.8946 15.3706 16.7071 15.5581C16.5196 15.7457 16.2652 15.851 16 15.851Z" fill="#47C56A"/>
<path d="M18 20.8511H4C2.93913 20.8511 1.92172 20.4296 1.17157 19.6795C0.421427 18.9294 0 17.9119 0 16.8511V4.85107C0 3.79021 0.421427 2.77279 1.17157 2.02265C1.92172 1.2725 2.93913 0.851074 4 0.851074H14C15.0609 0.851074 16.0783 1.2725 16.8284 2.02265C17.5786 2.77279 18 3.79021 18 4.85107C19.0609 4.85107 20.0783 5.2725 20.8284 6.02265C21.5786 6.77279 22 7.79021 22 8.85107V16.8511C22 17.9119 21.5786 18.9294 20.8284 19.6795C20.0783 20.4296 19.0609 20.8511 18 20.8511ZM4 2.85107C3.46957 2.85107 2.96086 3.06179 2.58579 3.43686C2.21071 3.81193 2 4.32064 2 4.85107V16.8511C2 17.3815 2.21071 17.8902 2.58579 18.2653C2.96086 18.6404 3.46957 18.8511 4 18.8511H18C18.5304 18.8511 19.0391 18.6404 19.4142 18.2653C19.7893 17.8902 20 17.3815 20 16.8511V8.85107C20 8.32064 19.7893 7.81193 19.4142 7.43686C19.0391 7.06179 18.5304 6.85107 18 6.85107H6C5.73478 6.85107 5.48043 6.74572 5.29289 6.55818C5.10536 6.37064 5 6.11629 5 5.85107C5 5.58586 5.10536 5.3315 5.29289 5.14397C5.48043 4.95643 5.73478 4.85107 6 4.85107H16C16 4.32064 15.7893 3.81193 15.4142 3.43686C15.0391 3.06179 14.5304 2.85107 14 2.85107H4Z" fill="#195F56"/>
<circle cx="16.347" cy="14.9762" r="1.83333" fill="#F5FFF5"/>
</svg>
