<svg width="22" height="22" viewBox="0 0 22 22" fill="none" xmlns="http://www.w3.org/2000/svg">
<path d="M19.3423 7.32834L13.7609 2.86323C12.9789 2.23259 12.0046 1.88867 11 1.88867C9.9954 1.88867 9.02107 2.23259 8.23907 2.86323L2.65769 7.32834C2.13913 7.74145 1.72067 8.26645 1.43362 8.86408C1.14656 9.46171 0.998331 10.1165 1.00001 10.7795V16.4325C1.00149 17.6039 1.46749 18.727 2.29582 19.5553C3.12415 20.3836 4.24718 20.8496 5.41861 20.8511H16.5814C17.7528 20.8496 18.8759 20.3836 19.7042 19.5553C20.5325 18.727 20.9985 17.6039 21 16.4325V10.7795C21.0015 10.1165 20.8532 9.46181 20.5661 8.86421C20.2791 8.26661 19.8607 7.74159 19.3423 7.32834Z" fill="#47C56A"/>
<path d="M16.5814 20.8511H5.41861C4.24718 20.8496 3.12415 20.3836 2.29582 19.5553C1.46749 18.727 1.00149 17.6039 1.00001 16.4325V9.84925C0.998469 9.18642 1.14676 8.5318 1.43382 7.93435C1.72087 7.33689 2.13925 6.81204 2.65768 6.39903L8.82047 1.4688C9.43813 0.971706 10.2072 0.700684 11 0.700684C11.7928 0.700684 12.5619 0.971706 13.1795 1.4688L19.3423 6.39903C19.8607 6.81227 20.2791 7.3373 20.5661 7.9349C20.8531 8.5325 21.0015 9.18722 21 9.85018V16.4325C20.9985 17.6039 20.5325 18.727 19.7042 19.5553C18.8759 20.3836 17.7528 20.8496 16.5814 20.8511ZM3.53024 7.4874C3.17529 7.77009 2.88885 8.12936 2.69232 8.53836C2.4958 8.94736 2.39428 9.39549 2.39536 9.84925V16.4325C2.39634 17.234 2.71518 18.0024 3.28194 18.5692C3.84869 19.1359 4.6171 19.4548 5.41861 19.4558H16.5814C17.3829 19.4548 18.1513 19.1359 18.7181 18.5692C19.2848 18.0024 19.6037 17.234 19.6046 16.4325V9.84925C19.6057 9.39549 19.5042 8.94736 19.3077 8.53836C19.1112 8.12936 18.8247 7.77009 18.4698 7.4874L12.307 2.55717C11.9369 2.25829 11.4757 2.09526 11 2.09526C10.5243 2.09526 10.0631 2.25829 9.69302 2.55717L3.53024 7.4874Z" fill="#195F56" stroke="#195F56"/>
<circle cx="11.2325" cy="13.3161" r="2.79069" fill="white"/>
</svg>
