<svg width="18" height="20" viewBox="0 0 18 20" fill="none" xmlns="http://www.w3.org/2000/svg">
<path d="M6.27749 0.992797C6.19476 0.85489 6.0457 0.770508 5.88488 0.770508H1.45856C1.10267 0.770508 0.882856 1.15875 1.06595 1.46392L6.01075 9.70525C6.09348 9.84316 6.24251 9.92754 6.40336 9.92754H10.8297C11.1856 9.92754 11.4054 9.5393 11.2223 9.23412L6.27749 0.992797Z" fill="#47C56A"/>
<mask id="path-2-outside-1_960_16509" maskUnits="userSpaceOnUse" x="-0.120605" y="-0.369141" width="13" height="12" fill="black">
<rect fill="white" x="-0.120605" y="-0.369141" width="13" height="12"/>
<path fill-rule="evenodd" clip-rule="evenodd" d="M6.22285 0.630859H1.79652C1.08475 0.630859 0.645094 1.40735 1.01131 2.01769L5.9561 10.259C6.12159 10.5348 6.41966 10.7036 6.74132 10.7036H11.1676C11.8794 10.7036 12.319 9.9271 11.9529 9.31676L7.00806 1.07544C6.84257 0.799623 6.54451 0.630859 6.22285 0.630859ZM6.22285 1.08871C6.38367 1.08871 6.5327 1.17309 6.61546 1.311L11.5603 9.55233C11.7433 9.85751 11.5235 10.2457 11.1676 10.2457H6.74132C6.58048 10.2457 6.43145 10.1614 6.34871 10.0235L1.40391 1.78213C1.2208 1.47696 1.44063 1.08871 1.79652 1.08871H6.22285Z"/>
</mask>
<path fill-rule="evenodd" clip-rule="evenodd" d="M6.22285 0.630859H1.79652C1.08475 0.630859 0.645094 1.40735 1.01131 2.01769L5.9561 10.259C6.12159 10.5348 6.41966 10.7036 6.74132 10.7036H11.1676C11.8794 10.7036 12.319 9.9271 11.9529 9.31676L7.00806 1.07544C6.84257 0.799623 6.54451 0.630859 6.22285 0.630859ZM6.22285 1.08871C6.38367 1.08871 6.5327 1.17309 6.61546 1.311L11.5603 9.55233C11.7433 9.85751 11.5235 10.2457 11.1676 10.2457H6.74132C6.58048 10.2457 6.43145 10.1614 6.34871 10.0235L1.40391 1.78213C1.2208 1.47696 1.44063 1.08871 1.79652 1.08871H6.22285Z" fill="#195F56"/>
<path d="M1.01131 2.01769L1.47436 1.73986L1.47435 1.73986L1.01131 2.01769ZM5.9561 10.259L5.49305 10.5368L5.49306 10.5369L5.9561 10.259ZM11.9529 9.31676L12.4159 9.03894L12.4159 9.03893L11.9529 9.31676ZM7.00806 1.07544L7.47111 0.797608L7.47111 0.797606L7.00806 1.07544ZM6.61546 1.311L7.0785 1.03317L7.07849 1.03314L6.61546 1.311ZM11.5603 9.55233L12.0233 9.27451L12.0233 9.2745L11.5603 9.55233ZM6.34871 10.0235L6.81177 9.74565L6.81176 9.74563L6.34871 10.0235ZM1.40391 1.78213L1.86696 1.5043L1.86695 1.50428L1.40391 1.78213ZM6.22285 0.090856H1.79652V1.17086H6.22285V0.090856ZM1.79652 0.090856C0.665016 0.090856 -0.0339194 1.32525 0.54826 2.29553L1.47435 1.73986C1.32411 1.48945 1.50448 1.17086 1.79652 1.17086V0.090856ZM0.548258 2.29552L5.49305 10.5368L6.41915 9.98119L1.47436 1.73986L0.548258 2.29552ZM5.49306 10.5369C5.75614 10.9753 6.22997 11.2436 6.74132 11.2436V10.1636C6.60934 10.1636 6.48705 10.0943 6.41915 9.98118L5.49306 10.5369ZM6.74132 11.2436H11.1676V10.1636H6.74132V11.2436ZM11.1676 11.2436C12.2992 11.2436 12.998 10.0092 12.4159 9.03894L11.4898 9.59458C11.6401 9.84501 11.4597 10.1636 11.1676 10.1636V11.2436ZM12.4159 9.03893L7.47111 0.797608L6.54501 1.35327L11.4898 9.59459L12.4159 9.03893ZM7.47111 0.797606C7.20803 0.359144 6.7342 0.090856 6.22285 0.090856V1.17086C6.35483 1.17086 6.47711 1.2401 6.54502 1.35327L7.47111 0.797606ZM6.22285 1.62871C6.19397 1.62871 6.16725 1.61356 6.15242 1.58886L7.07849 1.03314C6.89815 0.732623 6.57337 0.548708 6.22285 0.548708V1.62871ZM6.15241 1.58883L11.0972 9.83016L12.0233 9.2745L7.0785 1.03317L6.15241 1.58883ZM11.0972 9.83014C11.0644 9.77542 11.1038 9.70574 11.1676 9.70574V10.7857C11.9433 10.7857 12.4223 9.9396 12.0233 9.27451L11.0972 9.83014ZM11.1676 9.70574H6.74132V10.7857H11.1676V9.70574ZM6.74132 9.70574C6.77015 9.70574 6.79691 9.72087 6.81177 9.74565L5.88565 10.3013C6.06598 10.6019 6.3908 10.7857 6.74132 10.7857V9.70574ZM6.81176 9.74563L1.86696 1.5043L0.940865 2.05996L5.88566 10.3013L6.81176 9.74563ZM1.86695 1.50428C1.89983 1.55907 1.86034 1.62871 1.79652 1.62871V0.548708C1.02093 0.548708 0.541762 1.39484 0.940875 2.05997L1.86695 1.50428ZM1.79652 1.62871H6.22285V0.548708H1.79652V1.62871Z" fill="#195F56" mask="url(#path-2-outside-1_960_16509)"/>
<path d="M11.0474 0.992797C11.1301 0.85489 11.2792 0.770508 11.44 0.770508H15.8663C16.2222 0.770508 16.442 1.15875 16.2589 1.46392L11.3141 9.70525C11.2314 9.84316 11.0823 9.92754 10.9215 9.92754H6.49518C6.13929 9.92754 5.91948 9.5393 6.10257 9.23412L11.0474 0.992797Z" fill="#47C56A"/>
<path d="M11.42 9.88455L11.42 9.88454L16.3648 1.64321L16.3648 1.6432C16.44 1.518 16.3498 1.35871 16.2038 1.35871H11.7774C11.7115 1.35871 11.6503 1.39332 11.6163 1.44991L11.42 9.88455ZM11.42 9.88455C11.3861 9.94112 11.325 9.97574 11.259 9.97574H6.83264C6.68663 9.97574 6.59643 9.81647 6.67155 9.69124C6.67155 9.69124 6.67156 9.69124 6.67156 9.69123L11.6163 1.44993L11.42 9.88455ZM10.7607 0.936522L10.9906 1.07446L10.7607 0.936524L5.81592 9.17785C5.34173 9.96814 5.91098 10.9736 6.83264 10.9736H11.259C11.6755 10.9736 12.0614 10.7551 12.2757 10.3979L12.0442 10.259L12.2757 10.3979L17.2205 2.15661C17.6947 1.3663 17.1254 0.360858 16.2038 0.360858H11.7774C11.361 0.360858 10.975 0.57938 10.7607 0.936522Z" fill="#195F56" stroke="#195F56" stroke-width="0.540003"/>
<path d="M15.1813 11.9149C15.1813 15.3286 12.414 18.0959 9.00033 18.0959C5.58666 18.0959 2.81934 15.3286 2.81934 11.9149C2.81934 8.50121 5.58666 5.73389 9.00033 5.73389C12.414 5.73389 15.1813 8.50121 15.1813 11.9149Z" fill="white"/>
<path fill-rule="evenodd" clip-rule="evenodd" d="M15.639 12.1428C15.639 15.8093 12.6667 18.7816 9.00018 18.7816C5.33363 18.7816 2.36133 15.8093 2.36133 12.1428C2.36133 8.47621 5.33363 5.50391 9.00018 5.50391C12.6667 5.50391 15.639 8.47621 15.639 12.1428ZM9.00018 18.3238C12.4138 18.3238 15.1812 15.5564 15.1812 12.1428C15.1812 8.72908 12.4138 5.96176 9.00018 5.96176C5.5865 5.96176 2.81918 8.72908 2.81918 12.1428C2.81918 15.5564 5.5865 18.3238 9.00018 18.3238Z" fill="#195F56" stroke="#195F56" stroke-width="1.08001"/>
<path d="M6.48193 11.3199L8.0558 10.9995L8.52796 10.1982L9.00012 9.39697L9.94444 10.9995L11.5183 11.3199L10.2592 12.6019L10.574 14.2044L9.00012 13.4032L7.42625 14.2044L7.74103 12.6019L6.48193 11.3199Z" fill="#47C56A"/>
<path fill-rule="evenodd" clip-rule="evenodd" d="M7.96971 11.001L9.0005 9.25173L10.0313 11.001L11.7493 11.3508L10.3749 12.7502L10.7185 14.4994L9.0005 13.6248L7.28252 14.4994L7.62611 12.7502L6.25172 11.3508L7.96971 11.001ZM7.08493 12.9124L5.89518 11.701C5.76682 11.5703 5.72024 11.3798 5.77381 11.2047C5.82736 11.0295 5.9725 10.8976 6.15202 10.8611L7.65205 10.5556L8.56994 8.99799C8.65978 8.84554 8.82356 8.75195 9.0005 8.75195C9.17747 8.75195 9.34125 8.84554 9.43109 8.99799L10.349 10.5556L11.849 10.8611C12.0285 10.8976 12.1736 11.0295 12.2272 11.2047C12.2808 11.3798 12.2342 11.5703 12.1058 11.701L10.9161 12.9124L11.2089 14.4031C11.2458 14.5907 11.1723 14.7829 11.0197 14.8982C10.8671 15.0134 10.6622 15.0315 10.4918 14.9448L9.0005 14.1856L7.50927 14.9448C7.33887 15.0315 7.13388 15.0134 6.9813 14.8982C6.82872 14.7829 6.75528 14.5907 6.79213 14.4031L7.08493 12.9124Z" fill="#47C56A" stroke="#47C56A" stroke-width="0.5"/>
</svg>
