<svg width="22" height="22" viewBox="0 0 22 22" fill="none" xmlns="http://www.w3.org/2000/svg">
<path fill-rule="evenodd" clip-rule="evenodd" d="M12.8334 12.8333C12.8334 13.3395 12.423 13.7499 11.9167 13.7499H2.14213C1.94415 14.1667 1.83337 14.6329 1.83337 15.125C1.83337 16.8969 3.26979 18.3334 5.04171 18.3334H16.9584C18.7303 18.3334 20.1667 16.8969 20.1667 15.125C20.1667 13.5087 18.9715 12.1715 17.4167 11.9491V8.24997C17.4167 5.69028 15.0012 4.23821 12.8334 3.20837V12.8333Z" fill="#47C56A" fill-opacity="0.5"/>
<path fill-rule="evenodd" clip-rule="evenodd" d="M11 21.0833C9.29143 21.0833 7.85589 19.9147 7.44885 18.3333H9.41188C9.72886 18.8813 10.3214 19.25 11 19.25C11.6785 19.25 12.2711 18.8813 12.588 18.3333H14.5511C14.1441 19.9148 12.7085 21.0833 11 21.0833Z" fill="#144E46"/>
<path fill-rule="evenodd" clip-rule="evenodd" d="M9.30127 2.06063C6.58184 2.80532 4.58337 5.29428 4.58337 8.25002V11.9491C3.02857 12.1716 1.83337 13.5088 1.83337 15.125C1.83337 16.8969 3.26979 18.3334 5.04171 18.3334H16.9584C18.7303 18.3334 20.1667 16.8969 20.1667 15.125C20.1667 13.5088 18.9715 12.1716 17.4167 11.9491V8.25002C17.4167 5.29428 15.4183 2.80532 12.6988 2.06063C12.6075 1.83557 12.4715 1.62874 12.2964 1.45366C11.9525 1.10984 11.4862 0.916687 11 0.916687C10.5138 0.916687 10.0475 1.10984 9.70369 1.45366C9.52861 1.62874 9.39257 1.83557 9.30127 2.06063ZM6.41671 8.25002C6.41671 5.71872 8.46874 3.66669 11 3.66669C13.5313 3.66669 15.5834 5.71872 15.5834 8.25002V12.8334C15.5834 13.3396 15.9938 13.75 16.5 13.75H16.9584C17.7177 13.75 18.3334 14.3657 18.3334 15.125C18.3334 15.8844 17.7177 16.5 16.9584 16.5H5.04171C4.28231 16.5 3.66671 15.8844 3.66671 15.125C3.66671 14.3657 4.28231 13.75 5.04171 13.75H5.50004C6.0063 13.75 6.41671 13.3396 6.41671 12.8334V8.25002Z" fill="#144E46"/>
</svg>
