<svg width="66" height="21" viewBox="0 0 66 21" fill="none" xmlns="http://www.w3.org/2000/svg">
<path d="M36.1564 2.89024C39.3779 1.00454 42.9 1.92229 44.87 4.12749C46.9397 6.43021 47.2237 9.85079 45.5376 12.4381C44.5366 13.9541 43.1672 14.9366 41.3981 15.3733C39.629 15.8099 37.9087 15.4999 36.3231 14.6455V18.842C36.3231 19.8608 35.689 20.6272 34.7543 20.6941C33.786 20.7771 32.9677 20.0595 32.9182 19.0588C32.9014 18.858 32.9182 18.6578 32.9182 18.4576V3.89168C32.909 3.6265 32.9427 3.36158 33.018 3.10713C33.2516 2.48923 33.6856 2.10568 34.3371 2.00525C34.9545 1.88881 35.4888 2.10568 35.9227 2.57293C36.0085 2.67265 36.0866 2.77872 36.1564 2.89024ZM36.3399 8.69726C36.2401 10.2664 37.5586 12.1856 39.8118 12.1856C41.7148 12.2023 43.2676 10.6332 43.2844 8.71399C43.2844 6.7781 41.7483 5.20971 39.8118 5.22644C37.6255 5.24318 36.2561 7.09543 36.3399 8.69726Z" fill="black"/>
<path d="M26.1263 3.27432C26.2435 3.19135 26.2435 3.09091 26.2763 3.00722C26.6272 2.27288 27.3618 1.88934 28.1466 2.03926C28.5184 2.10789 28.8561 2.30032 29.1046 2.58523C29.3531 2.87014 29.4978 3.23076 29.5152 3.60837V13.7712C29.5269 14.0378 29.4871 14.3042 29.398 14.5557C29.1308 15.2232 28.6307 15.6067 27.9129 15.6569C27.2118 15.6904 26.6753 15.3731 26.3265 14.7727C26.2701 14.6701 26.22 14.5641 26.1766 14.4553C26.0593 14.4219 25.9931 14.5223 25.9261 14.5725C22.0029 17.3592 16.6075 15.3898 15.343 10.6505C14.3747 7.0457 16.4445 3.25758 19.9499 2.1921C22.0029 1.55746 23.9539 1.87478 25.7594 3.05962C25.8923 3.11132 26.0162 3.18379 26.1263 3.27432ZM18.531 8.84846C18.5287 9.16923 18.5681 9.48902 18.6482 9.79967C19.2656 12.2196 22.1033 13.2537 24.0398 11.7523C25.7761 10.4168 25.9429 7.83025 24.4038 6.27863C23.6031 5.47806 22.6181 5.1098 21.4831 5.29393C19.7497 5.59378 18.5477 7.06244 18.531 8.84846Z" fill="black"/>
<path d="M54.6401 5.88796C54.65 5.89974 54.6624 5.90922 54.6763 5.91572C54.6903 5.92222 54.7055 5.92559 54.7209 5.92559C54.7363 5.92559 54.7515 5.92222 54.7655 5.91572C54.7794 5.90922 54.7918 5.89974 54.8017 5.88796C55.2254 5.37123 55.6484 4.86906 56.0568 4.38362C56.5744 3.76573 57.076 3.14638 57.5929 2.5314C58.0603 1.9972 58.6442 1.76358 59.3452 1.94917C59.601 2.01536 59.8376 2.14093 60.0358 2.31568C60.2338 2.49043 60.388 2.70942 60.4856 2.95488C60.5832 3.20034 60.6215 3.46536 60.5974 3.7284C60.5733 3.99144 60.4876 4.2451 60.347 4.46878C60.2226 4.65646 60.0831 4.83366 59.9298 4.9986C58.9951 6.13323 58.0603 7.25478 57.1088 8.38648C56.8125 8.75693 56.9064 8.63391 57.2078 9.04146L60.1198 12.5181C61.0204 13.4868 60.6295 14.9497 59.4151 15.3434C58.7475 15.5617 58.0465 15.3434 57.5791 14.7757C56.744 13.7742 55.9265 12.7896 55.0915 11.7918C55.0085 11.6913 54.9415 11.6077 54.8578 11.5079C54.6911 11.3078 54.6743 11.3078 54.5076 11.5247C53.7563 12.4089 53.0217 13.31 52.2704 14.1942C52.1037 14.3951 51.953 14.5952 51.7863 14.7765C51.1522 15.5108 50.1169 15.6272 49.3838 15.0268C48.6325 14.4096 48.5495 13.358 49.1655 12.5902C50.2006 11.3391 51.2352 10.1041 52.2704 8.86897C52.4706 8.61863 52.4706 8.61863 52.2704 8.38503C51.2686 7.18341 50.2676 5.9833 49.2659 4.797C48.8604 4.31521 48.642 3.79775 48.8124 3.17913C48.8802 2.88805 49.024 2.62014 49.2291 2.40269C49.4342 2.18522 49.6932 2.02597 49.9799 1.94114C50.2666 1.85631 50.5706 1.84894 50.861 1.91976C51.1515 1.99059 51.418 2.1371 51.6334 2.34436C51.7331 2.44479 51.8336 2.56269 51.9333 2.67841C52.7094 3.6158 54.2674 5.44983 54.6401 5.88796Z" fill="#8DBC1A"/>
<path d="M7.31732 1.56292C9.13736 1.56292 10.7062 2.18082 12.0749 3.34891C12.8429 4.0163 12.9427 5.08396 12.2933 5.80157C12.0258 6.10514 11.6581 6.30251 11.2571 6.35768C10.8562 6.41285 10.4488 6.32216 10.1093 6.10214C9.95925 6.0017 9.84206 5.8838 9.69206 5.78483C7.93829 4.36637 5.21407 4.80013 3.97862 6.66982C2.60996 8.73895 3.74493 11.5926 6.21581 12.2265C7.51752 12.5605 8.70271 12.3269 9.75469 11.4754C10.2883 11.0249 10.8897 10.875 11.5405 11.1253C11.7927 11.219 12.0188 11.3715 12.2001 11.5701C12.3813 11.7687 12.5126 12.0078 12.5828 12.2673C12.653 12.5269 12.6602 12.7995 12.6038 13.0624C12.5474 13.3253 12.4289 13.5709 12.2583 13.7789C12.1209 13.9262 11.9751 14.0654 11.8215 14.1959C10.2199 15.4331 8.39986 15.9811 6.37962 15.7148C3.75877 15.3509 1.80551 13.979 0.670531 11.5926C-0.998802 8.07154 0.470327 3.51412 4.8435 1.97995C5.63557 1.69054 6.4741 1.54919 7.31732 1.56292Z" fill="black"/>
<path d="M62.8166 0.356216H62.2491V0H63.7925V0.356216H63.2251V1.89251H62.8149V0.356216H62.8166Z" fill="black"/>
<path d="M65.6153 1.89434L65.6136 0.758101L65.0923 1.6934H64.9077L64.3881 0.781845V1.89434H64.0035V0H64.342L65.0051 1.17642L65.658 0H65.9947L66 1.89434H65.6153Z" fill="black"/>
</svg>
