<svg width="84" height="27" viewBox="0 0 84 27" fill="none" xmlns="http://www.w3.org/2000/svg">
<path d="M46.0173 3.67877C50.1173 1.27884 54.6 2.44686 57.1073 5.2534C59.7415 8.18406 60.1029 12.5374 57.9569 15.8303C56.6829 17.7596 54.9401 19.0101 52.6886 19.5659C50.437 20.1216 48.2475 19.7271 46.2295 18.6396V23.9804C46.2295 25.2771 45.4224 26.2525 44.2328 26.3377C43.0004 26.4433 41.9589 25.53 41.896 24.2564C41.8746 24.0008 41.896 23.7461 41.896 23.4913V4.95329C41.8842 4.6158 41.9271 4.27863 42.0229 3.95479C42.3203 3.1684 42.8726 2.68027 43.7018 2.55245C44.4876 2.40425 45.1676 2.68027 45.7199 3.27492C45.8291 3.40184 45.9285 3.53684 46.0173 3.67877ZM46.2508 11.0693C46.1238 13.0664 47.8019 15.5089 50.6695 15.5089C53.0916 15.5302 55.0679 13.5332 55.0892 11.0906C55.0892 8.62681 53.1342 6.63074 50.6695 6.65204C47.887 6.67334 46.1442 9.03069 46.2508 11.0693Z" fill="black"/>
<path d="M33.2517 4.16758C33.4009 4.06199 33.4009 3.93416 33.4426 3.82765C33.8892 2.89305 34.8241 2.40492 35.8229 2.59573C36.2962 2.68307 36.726 2.92798 37.0422 3.29059C37.3585 3.65319 37.5427 4.11214 37.5649 4.59273V17.5269C37.5797 17.8662 37.5291 18.2053 37.4157 18.5254C37.0756 19.3748 36.4391 19.8629 35.5256 19.9268C34.6332 19.9695 33.9504 19.5656 33.5065 18.8015C33.4346 18.6709 33.3709 18.536 33.3157 18.3976C33.1665 18.355 33.0822 18.4828 32.9969 18.5468C28.0037 22.0933 21.1369 19.5869 19.5275 13.5552C18.2952 8.9674 20.9294 4.14627 25.3908 2.79024C28.0037 1.98255 30.4868 2.38639 32.7847 3.89433C32.9539 3.96013 33.1115 4.05236 33.2517 4.16758ZM23.5849 11.2618C23.5821 11.67 23.6321 12.077 23.7341 12.4724C24.5198 15.5522 28.1315 16.8683 30.5962 14.9575C32.806 13.2578 33.0182 9.96588 31.0595 7.99115C30.0403 6.97227 28.7867 6.50359 27.3421 6.73793C25.136 7.11954 23.6062 8.98869 23.5849 11.2618Z" fill="black"/>
<path d="M69.5421 7.49394C69.5547 7.50894 69.5705 7.521 69.5882 7.52928C69.606 7.53755 69.6253 7.54184 69.6449 7.54184C69.6646 7.54184 69.6839 7.53755 69.7017 7.52928C69.7194 7.521 69.7352 7.50894 69.7478 7.49394C70.287 6.83631 70.8254 6.19719 71.3452 5.57938C72.004 4.79299 72.6424 4.00475 73.3002 3.22207C73.8951 2.5422 74.6382 2.24487 75.5305 2.48107C75.856 2.56531 76.1571 2.72513 76.4093 2.94752C76.6614 3.16992 76.8576 3.44864 76.9818 3.76103C77.106 4.07343 77.1548 4.41071 77.1241 4.74549C77.0935 5.08026 76.9843 5.40309 76.8055 5.68776C76.6471 5.92662 76.4696 6.15214 76.2745 6.36207C75.0848 7.8061 73.8951 9.23348 72.6841 10.6738C72.307 11.1453 72.4265 10.9887 72.8101 11.5074L76.5163 15.9321C77.6625 17.165 77.165 19.0267 75.6194 19.5278C74.7698 19.8057 73.8775 19.5278 73.2827 18.8054C72.2199 17.5308 71.1794 16.2776 70.1166 15.0077C70.0109 14.8799 69.9258 14.7734 69.8192 14.6464C69.607 14.3917 69.5857 14.3917 69.3735 14.6677C68.4173 15.7932 67.4824 16.9399 66.5262 18.0653C66.314 18.3209 66.1222 18.5756 65.91 18.8063C65.103 19.7409 63.7854 19.889 62.8524 19.1249C61.8961 18.3394 61.7905 17.001 62.5744 16.0238C63.8919 14.4315 65.2086 12.8597 66.5262 11.2879C66.781 10.9693 66.781 10.9693 66.5262 10.672C65.2512 9.14266 63.9772 7.61529 62.7023 6.10549C62.1861 5.49231 61.9082 4.83375 62.125 4.04643C62.2114 3.67598 62.3944 3.33502 62.6554 3.05826C62.9164 2.78149 63.2461 2.57881 63.6109 2.47085C63.9758 2.36289 64.3628 2.3535 64.7324 2.44364C65.1021 2.53379 65.4412 2.72024 65.7154 2.98402C65.8423 3.11184 65.9702 3.26189 66.0971 3.40917C67.0849 4.60219 69.0678 6.93634 69.5421 7.49394Z" fill="#8DBC1A"/>
<path d="M9.31278 1.98896C11.6292 1.98896 13.6259 2.77534 15.3678 4.26197C16.3453 5.11135 16.4723 6.47016 15.6458 7.38345C15.3054 7.7698 14.8373 8.02099 14.3271 8.09121C13.8168 8.16143 13.2983 8.04601 12.8661 7.76599C12.6752 7.63816 12.5261 7.48811 12.3352 7.36215C10.1031 5.55688 6.63591 6.10892 5.06353 8.48847C3.3216 11.1218 4.76611 14.7537 7.91086 15.5604C9.56758 15.9856 11.076 15.6882 12.4149 14.6045C13.094 14.0312 13.8594 13.8404 14.6877 14.159C15.0086 14.2781 15.2964 14.4723 15.5272 14.725C15.7579 14.9778 15.9249 15.2821 16.0143 15.6124C16.1036 15.9428 16.1128 16.2897 16.041 16.6243C15.9692 16.9589 15.8184 17.2715 15.6013 17.5361C15.4264 17.7236 15.2408 17.9008 15.0453 18.0669C13.007 19.6414 10.6906 20.3389 8.11934 19.9999C4.78372 19.5368 2.29776 17.7908 0.853246 14.7536C-1.27136 10.2724 0.598441 4.47223 6.16429 2.5197C7.17237 2.15137 8.23959 1.97147 9.31278 1.98896Z" fill="black"/>
<path d="M79.9483 0.453354H79.2261V0H81.1904V0.453354H80.4682V2.40858H79.9461V0.453354H79.9483Z" fill="black"/>
<path d="M83.5103 2.41091L83.5081 0.96483L82.8447 2.15517H82.6097L81.9485 0.995049V2.41091H81.459V0H81.8897L82.7337 1.49723L83.5647 0H83.9932L83.9999 2.41091H83.5103Z" fill="black"/>
</svg>
