<svg width="19" height="20" viewBox="0 0 19 20" fill="none" xmlns="http://www.w3.org/2000/svg">
<path d="M14.6037 16.4702C13.5019 17.124 12.174 17.436 10.739 17.285C10.5458 17.2649 10.3592 17.2377 10.1655 17.2039C9.02374 16.9935 7.93997 16.506 6.97923 15.8214C6.36468 15.3845 5.79501 14.8636 5.30503 14.2708C4.41976 13.226 3.74225 11.9763 3.38797 10.6226C3.24474 10.1127 3.16035 9.5914 3.11235 9.05731C3.10074 8.93408 3.09574 8.80372 3.091 8.68018C3.06257 7.93922 3.12466 7.22908 3.27778 6.5636C3.70231 4.73332 4.77222 3.2493 6.23687 2.38232L4.40302 3.47647C2.93837 4.34349 1.86842 5.82747 1.45081 7.65749C1.29081 8.32323 1.22873 9.03336 1.25716 9.77437C1.2619 9.89787 1.2735 10.0211 1.28511 10.1443C1.3262 10.6787 1.42193 11.2041 1.55147 11.7145C1.91975 13.0746 2.58592 14.3202 3.47115 15.365C3.96116 15.9577 4.52397 16.479 5.13852 16.9158C7.44686 18.5767 10.4229 18.9532 12.763 17.5646L14.6037 16.4702Z" fill="#F3A250"/>
<path d="M17.7427 10.1725C17.5693 5.8297 14.1507 1.97557 10.1014 1.56059C6.05919 1.15222 2.91783 4.34416 3.09106 8.68006C3.26456 13.0229 6.68999 16.8767 10.739 17.2848C14.7815 17.7001 17.9162 14.5153 17.7427 10.1725Z" fill="#FFD475"/>
<path d="M10.0624 1.93032C6.47076 1.50224 3.28708 4.37763 3.45998 8.66477C3.62356 12.8236 6.90632 16.5286 10.775 16.9192C14.7065 17.294 17.5344 14.215 17.3722 10.19C17.2086 6.03116 13.9258 2.32615 10.0624 1.93032ZM10.6113 15.5522C7.47636 15.2356 4.81634 12.2483 4.67911 8.89696C4.54954 5.57861 6.89559 3.00619 10.2261 3.29196C13.361 3.6139 16.0158 6.60636 16.153 9.9578C16.2915 13.4867 13.6583 15.891 10.6113 15.5522Z" fill="#FFB961"/>
<path d="M15.7836 9.97296C15.6546 6.78968 13.1482 3.96558 10.1888 3.65998C7.22266 3.36151 4.92108 5.69665 5.05009 8.87993C5.1791 12.0632 7.68549 14.8873 10.6515 15.1858C13.611 15.4914 15.9123 13.1494 15.7836 9.97296Z" fill="#F3A250"/>
<path d="M15.7835 9.97267C15.6545 6.78938 13.1481 3.96529 10.1887 3.65969C8.46419 3.48537 6.95941 4.2027 6.03887 5.4611C6.94327 4.67743 8.15088 4.27383 9.49587 4.40773C12.4554 4.71333 14.9617 7.53742 15.0908 10.7207C15.1416 12.0449 14.7746 13.2271 14.1016 14.1324C15.1995 13.197 15.857 11.7083 15.7835 9.97267ZM10.1655 17.2037C9.02366 16.9932 7.93989 16.5057 6.97915 15.8211L5.13844 16.9155C6.09944 17.607 7.18291 18.0877 8.32474 18.2981L10.1655 17.2037ZM5.30495 14.2706C4.41968 13.2258 3.74216 11.9761 3.38789 10.6223L1.55139 11.7142C1.91966 13.0743 2.58584 14.32 3.47106 15.3647L5.30495 14.2706Z" fill="#DD8536"/>
<path d="M3.27778 6.56348L1.45081 7.65736C1.29081 8.3231 1.22873 9.03324 1.25716 9.77424C1.2619 9.89774 1.2735 10.021 1.28511 10.1442L3.11235 9.05718C3.10074 8.93395 3.09574 8.80359 3.091 8.68005C3.06257 7.93909 3.12466 7.22896 3.27778 6.56348Z" fill="#DD8536"/>
<path d="M5.58586 6.73854C5.62107 6.66209 5.72966 6.66309 5.7646 6.73986C5.94481 7.13586 6.10029 7.4579 6.12774 7.44669C6.15271 7.43651 6.04037 7.09798 5.89462 6.68924C5.86634 6.60991 5.94328 6.53346 6.02167 6.56345C6.82058 6.86908 7.55441 7.13476 7.57497 7.08555C7.59474 7.03824 6.89261 6.69294 6.1174 6.33056C6.04122 6.29495 6.04187 6.18589 6.11817 6.151C6.50952 5.97202 6.82909 5.81696 6.81786 5.78936C6.80765 5.76426 6.47102 5.87616 6.0646 6.02141C5.98573 6.0496 5.90941 5.97209 5.93903 5.89342C6.71269 3.83836 6.6166 3.82306 5.70699 5.79657C5.67176 5.873 5.56321 5.87201 5.52826 5.79525C5.34904 5.40152 5.19414 5.07987 5.1692 5.09004C5.14179 5.10123 5.25422 5.44089 5.40088 5.84669C5.42957 5.92607 5.3526 6.00288 5.27403 5.97286C4.47669 5.6682 3.73968 5.40304 3.71992 5.45033C3.69936 5.49953 4.40404 5.84402 5.1781 6.20561C5.2542 6.24116 5.25365 6.35009 5.17751 6.38511C4.78509 6.56555 4.46478 6.72053 4.475 6.74564C4.48621 6.7732 4.82385 6.66126 5.22779 6.51382C5.30676 6.48499 5.38366 6.56257 5.35397 6.64153C4.58909 8.67529 4.66481 8.73867 5.58586 6.73854Z" fill="white"/>
<g opacity="0.7">
<path d="M8.89219 13.5144C9.57317 13.9192 10.178 14.1 10.0318 14.377C9.88703 14.651 9.20758 14.5541 8.52661 14.1493C7.84566 13.7445 7.52192 13.1924 7.66664 12.9183C7.8129 12.6414 8.21124 13.1096 8.89219 13.5144Z" fill="white"/>
</g>
<g opacity="0.7">
<path d="M6.87683 12.123C6.99954 12.0273 7.20687 12.0885 7.3402 12.2556C7.47353 12.4227 7.4834 12.6336 7.36069 12.7294C7.2405 12.8232 7.03531 12.7647 6.90198 12.5976C6.76865 12.4305 6.75664 12.2168 6.87683 12.123Z" fill="white"/>
</g>
<path d="M7.68616 8.13668C7.7258 7.86104 7.93583 7.506 8.19871 7.38672C8.29115 7.78364 8.06326 8.08332 7.68616 8.13668ZM13.2268 10.718C13.2268 10.718 13.3018 11.5281 12.6411 11.7567C11.9804 11.9854 13.2268 10.718 13.2268 10.718Z" fill="#DD8536"/>
<path d="M13.0051 11.3317C12.9814 11.4251 12.937 11.5115 12.873 11.5802C12.8139 11.6548 12.7345 11.7169 12.6411 11.7568C11.6855 12.1006 10.6696 12.4076 9.60922 12.6738C9.16849 12.7609 8.83901 12.4587 8.76168 12.1052C8.49072 10.912 8.13604 9.70664 7.71999 8.53848C7.56959 8.13762 7.77581 7.7681 8.14364 7.65237C9.19734 7.40149 10.1744 7.1177 11.0589 6.79973C11.3453 6.69574 11.7433 6.88988 11.8925 7.28252C12.3344 8.45815 12.711 9.65482 13.0245 10.8462C13.0693 11.0418 13.0579 11.1409 13.0051 11.3317Z" fill="#DD8536"/>
<path d="M12.8102 11.4454C11.8546 11.7892 10.8386 12.0962 9.77826 12.3624C9.36533 12.444 9.01412 12.175 8.93072 11.7937C8.65977 10.6006 8.30508 9.39522 7.88904 8.22706C7.73965 7.82892 7.94154 7.45773 8.31268 7.34095C9.36638 7.09007 10.3434 6.80628 11.2279 6.48831C11.5094 6.38614 11.9087 6.569 12.0615 6.9711C12.5035 8.14673 12.88 9.3434 13.1935 10.5347C13.2887 10.9509 13.1082 11.3181 12.8102 11.4454Z" fill="#F8F9FE"/>
<path d="M9.40405 12.1112C9.89147 11.2193 10.3205 10.3195 10.691 9.41162C11.4852 9.92497 12.2459 10.4411 12.9742 10.9609C12.9337 11.0978 12.8435 11.2001 12.7271 11.2495C11.7909 11.5864 10.7916 11.8898 9.72811 12.1578C9.61553 12.1827 9.50367 12.172 9.40405 12.1112Z" fill="#B0B8CF"/>
<path d="M10.691 9.41125C11.0483 8.52954 11.3522 7.63653 11.6025 6.73242C11.7095 6.78928 11.8067 6.90004 11.8681 7.05005C12.299 8.20635 12.6733 9.38564 12.987 10.5878C13.0221 10.7221 13.0171 10.8513 12.9742 10.9605C12.2459 10.441 11.4853 9.92469 10.691 9.41125Z" fill="#C9CEE2"/>
<path d="M11.6034 6.73037C11.3549 7.63625 11.0457 8.53082 10.6916 9.41271C9.86176 8.87267 8.99331 8.33929 8.07861 7.80618C8.13563 7.67208 8.23894 7.58389 8.37639 7.54019C9.41634 7.29501 10.3926 7.01178 11.2981 6.68965C11.3981 6.65554 11.5016 6.67128 11.6034 6.73037Z" fill="#E3E7F0"/>
<path d="M8.08017 7.80518C8.99081 8.33832 9.86039 8.87392 10.6909 9.41128C10.3203 10.319 9.89144 11.2189 9.40396 12.1108C9.2804 12.042 9.17267 11.9151 9.13955 11.7508C8.85774 10.5238 8.50512 9.3251 8.08663 8.15419C8.03851 8.03146 8.04007 7.90804 8.08017 7.80518Z" fill="#C9CEE2"/>
<path d="M10.3939 10.1095C10.3939 10.1095 10.6933 9.39861 11.4153 9.88666C11.4153 9.88666 10.713 9.41615 10.9761 8.67383C10.9761 8.67383 10.6894 9.398 9.98669 8.9621C10.4616 9.25147 10.6039 9.62815 10.3939 10.1095Z" fill="#F1F6FA"/>
</svg>
