<svg width="70" height="23" viewBox="0 0 70 23" fill="none" xmlns="http://www.w3.org/2000/svg">
<path d="M38.3478 3.36552C41.7646 1.36559 45.5001 2.33893 47.5895 4.67771C49.7846 7.11992 50.0858 10.7477 48.2975 13.4917C47.2358 15.0995 45.7835 16.1416 43.9072 16.6047C42.0309 17.0678 40.2063 16.739 38.5247 15.8328V20.2835C38.5247 21.3641 37.8521 22.1769 36.8607 22.2479C35.8338 22.3359 34.9659 21.5748 34.9134 20.5135C34.8956 20.3005 34.9134 20.0882 34.9134 19.8759V4.42762C34.9036 4.14638 34.9394 3.86541 35.0192 3.59554C35.267 2.94022 35.7273 2.53344 36.4183 2.42692C37.0731 2.30343 37.6398 2.53344 38.1 3.02898C38.191 3.13475 38.2738 3.24725 38.3478 3.36552ZM38.5424 9.5243C38.4366 11.1885 39.835 13.2239 42.2247 13.2239C44.2431 13.2417 45.89 11.5775 45.9078 9.54204C45.9078 7.48888 44.2786 5.82549 42.2247 5.84324C39.906 5.86099 38.4536 7.82544 38.5424 9.5243Z" fill="black"/>
<path d="M27.7101 3.77286C27.8344 3.68487 27.8344 3.57835 27.8692 3.48959C28.2414 2.71076 29.0205 2.30399 29.8528 2.46299C30.2472 2.53578 30.6053 2.73986 30.8689 3.04204C31.1325 3.3442 31.286 3.72667 31.3044 4.12715V14.9056C31.3168 15.1883 31.2746 15.4709 31.1801 15.7377C30.8967 16.4455 30.3663 16.8523 29.605 16.9055C28.8614 16.9411 28.2924 16.6045 27.9225 15.9677C27.8626 15.8589 27.8095 15.7465 27.7635 15.6312C27.6391 15.5957 27.5689 15.7022 27.4978 15.7555C23.3368 18.7109 17.6145 16.6223 16.2733 11.5958C15.2464 7.7727 17.4415 3.75511 21.1594 2.62509C23.3368 1.95201 25.4061 2.28855 27.321 3.54516C27.462 3.59999 27.5933 3.67685 27.7101 3.77286ZM19.6545 9.68466C19.6521 10.0249 19.6938 10.364 19.7788 10.6935C20.4336 13.26 23.4433 14.3568 25.4972 12.7644C27.3387 11.348 27.5156 8.60476 25.8833 6.95916C25.034 6.1101 23.9893 5.71953 22.7855 5.91481C20.9471 6.23283 19.6722 7.79044 19.6545 9.68466Z" fill="black"/>
<path d="M57.9515 6.54482C57.962 6.55732 57.9751 6.56737 57.9899 6.57427C58.0047 6.58116 58.0208 6.58473 58.0372 6.58473C58.0535 6.58473 58.0697 6.58116 58.0845 6.57427C58.0993 6.56737 58.1124 6.55732 58.1229 6.54482C58.5723 5.9968 59.0209 5.4642 59.4541 4.94936C60.003 4.29404 60.5351 3.63718 61.0833 2.98494C61.579 2.41838 62.1982 2.17061 62.9418 2.36744C63.2131 2.43764 63.464 2.57082 63.6742 2.75615C63.8842 2.94149 64.0478 3.17375 64.1512 3.43408C64.2548 3.69441 64.2954 3.97547 64.2698 4.25445C64.2443 4.53343 64.1533 4.80245 64.0043 5.03967C63.8723 5.23873 63.7244 5.42666 63.5618 5.6016C62.5704 6.80495 61.579 7.99444 60.5698 9.1947C60.2555 9.58758 60.3552 9.45711 60.6748 9.88935L63.7633 13.5766C64.7185 14.604 64.3039 16.1555 63.0159 16.573C62.3079 16.8046 61.5643 16.573 61.0686 15.971C60.1829 14.9088 59.3159 13.8645 58.4302 12.8063C58.3422 12.6997 58.2712 12.611 58.1824 12.5052C58.0056 12.293 57.9878 12.293 57.811 12.523C57.0141 13.4608 56.2351 14.4164 55.4382 15.3542C55.2614 15.5673 55.1016 15.7795 54.9248 15.9717C54.2522 16.7506 53.1542 16.874 52.3767 16.2372C51.5799 15.5827 51.4918 14.4673 52.1451 13.653C53.243 12.3261 54.3402 11.0163 55.4382 9.70641C55.6506 9.44091 55.6506 9.44091 55.4382 9.19315C54.3757 7.91875 53.3141 6.64594 52.2517 5.38778C51.8215 4.8768 51.5899 4.328 51.7706 3.67191C51.8426 3.3632 51.9951 3.07906 52.2126 2.84843C52.4301 2.61779 52.7049 2.4489 53.0089 2.35893C53.313 2.26896 53.6354 2.26114 53.9434 2.33626C54.2515 2.41138 54.5341 2.56675 54.7626 2.78657C54.8684 2.89309 54.9749 3.01813 55.0807 3.14086C55.9038 4.13503 57.5562 6.08016 57.9515 6.54482Z" fill="#8DBC1A"/>
<path d="M7.76062 1.95702C9.69096 1.95702 11.3549 2.61234 12.8065 3.8512C13.6211 4.55901 13.7269 5.69135 13.0381 6.45242C12.7544 6.77438 12.3644 6.9837 11.9392 7.04222C11.514 7.10073 11.0819 7.00455 10.7217 6.7712C10.5627 6.66468 10.4384 6.53964 10.2793 6.43467C8.41922 4.93028 5.52991 5.39032 4.2196 7.37326C2.76799 9.56773 3.97175 12.5942 6.59236 13.2665C7.97295 13.6208 9.22996 13.3731 10.3457 12.4699C10.9116 11.9922 11.5495 11.8332 12.2397 12.0987C12.5072 12.198 12.747 12.3597 12.9393 12.5704C13.1315 12.781 13.2707 13.0346 13.3452 13.3099C13.4196 13.5852 13.4273 13.8742 13.3674 14.1531C13.3076 14.4319 13.182 14.6924 13.0011 14.913C12.8553 15.0692 12.7006 15.2168 12.5377 15.3552C10.8391 16.6674 8.90876 17.2486 6.76609 16.9661C3.98642 16.5802 1.91479 15.1252 0.711036 12.5942C-1.05946 8.85989 0.498699 4.02642 5.13689 2.3993C5.97695 2.09237 6.8663 1.94245 7.76062 1.95702Z" fill="black"/>
<path d="M66.6238 0.677598H66.022V0.299805H67.6589V0.677598H67.057V2.30695H66.622V0.677598H66.6238Z" fill="black"/>
<path d="M69.592 2.30889L69.5902 1.10383L69.0373 2.09578H68.8415L68.2905 1.12901V2.30889H67.8826V0.299805H68.2415L68.9449 1.54749L69.6373 0.299805H69.9944L70 2.30889H69.592Z" fill="black"/>
</svg>
