<svg width="100" height="100" viewBox="0 0 100 100" fill="none" xmlns="http://www.w3.org/2000/svg">
<g clip-path="url(#clip0_1753_3981)">
<path d="M50 0C22.4292 0 0 22.4292 0 50C0 77.5708 22.4292 100 50 100C77.5708 100 100 77.5708 100 50C100 22.4292 77.5708 0 50 0Z" fill="#69B342"/>
<path opacity="0.2" d="M50 1.04167C77.3958 1.04167 99.6917 23.1917 99.975 50.5208C99.975 50.3458 100 50.175 100 50C100 22.4292 77.5708 0 50 0C22.4292 0 0 22.4292 0 50C0 50.175 0.025 50.3458 0.025 50.5208C0.308333 23.1917 22.6083 1.04167 50 1.04167Z" fill="white"/>
<path opacity="0.1" d="M50 98.9583C22.6042 98.9583 0.308333 76.8083 0.025 49.4792C0.025 49.6542 0 49.825 0 50C0 77.5708 22.4292 100 50 100C77.5708 100 100 77.5708 100 50C100 49.825 99.975 49.6542 99.975 49.4792C99.6917 76.8083 77.3917 98.9583 50 98.9583Z" fill="black"/>
<path d="M39.5834 74.6417L16.6667 51.725L22.5584 45.8333L39.5834 62.8583L73.2751 29.1667L79.1667 35.0583L39.5834 74.6417Z" fill="white"/>
<path d="M79.1666 35.0583L39.5833 74.6417L63.1333 98.1917C82.6082 92.875 97.3833 76.1 99.6749 55.5667L79.1666 35.0542V35.0583Z" fill="url(#paint0_linear_1753_3981)"/>
<path d="M50 0C22.4292 0 0 22.4292 0 50C0 77.5708 22.4292 100 50 100C77.5708 100 100 77.5708 100 50C100 22.4292 77.5708 0 50 0Z" fill="url(#paint1_linear_1753_3981)"/>
</g>
<defs>
<linearGradient id="paint0_linear_1753_3981" x1="60.8642" y1="56.3396" x2="83.188" y2="78.6634" gradientUnits="userSpaceOnUse">
<stop stop-opacity="0.1"/>
<stop offset="1" stop-opacity="0"/>
</linearGradient>
<linearGradient id="paint1_linear_1753_3981" x1="4.68716" y1="28.8703" x2="95.3128" y2="71.1297" gradientUnits="userSpaceOnUse">
<stop stop-color="white" stop-opacity="0.2"/>
<stop offset="1" stop-color="white" stop-opacity="0"/>
</linearGradient>
<clipPath id="clip0_1753_3981">
<rect width="100" height="100" fill="white"/>
</clipPath>
</defs>
</svg>
