<svg width="23" height="23" viewBox="0 0 23 23" fill="none" xmlns="http://www.w3.org/2000/svg">
<mask id="mask0_1_109" style="mask-type:alpha" maskUnits="userSpaceOnUse" x="0" y="0" width="23" height="23">
<rect width="23" height="23" fill="#D9D9D9"/>
</mask>
<g mask="url(#mask0_1_109)">
<path d="M10.6376 18.2083H12.3147V17.0104C13.1133 16.8666 13.8001 16.5552 14.3751 16.076C14.9501 15.5968 15.2376 14.8861 15.2376 13.9437C15.2376 13.2729 15.0459 12.6579 14.6626 12.0989C14.2792 11.5399 13.5126 11.0527 12.3626 10.6375C11.4042 10.318 10.7414 10.0385 10.374 9.79892C10.0067 9.55933 9.823 9.2319 9.823 8.81663C9.823 8.40135 9.9709 8.07392 10.2667 7.83433C10.5619 7.59475 10.989 7.47496 11.548 7.47496C12.0591 7.47496 12.4584 7.5989 12.7459 7.84679C13.0334 8.09404 13.2411 8.40135 13.3688 8.76871L14.9022 8.14579C14.7265 7.58676 14.4032 7.09961 13.9323 6.68433C13.4608 6.26906 12.9376 6.03746 12.3626 5.98954V4.79163H10.6855V5.98954C9.88689 6.16524 9.26397 6.51663 8.81675 7.04371C8.36953 7.57079 8.14591 8.16176 8.14591 8.81663C8.14591 9.56732 8.36569 10.1743 8.80525 10.6375C9.24416 11.1007 9.9348 11.5 10.8772 11.8354C11.8834 12.2027 12.5824 12.5302 12.974 12.8177C13.365 13.1052 13.5605 13.4805 13.5605 13.9437C13.5605 14.4708 13.3727 14.858 12.997 15.1052C12.622 15.3531 12.1709 15.477 11.6438 15.477C11.1167 15.477 10.6497 15.3132 10.2427 14.9854C9.83514 14.6583 9.5355 14.1673 9.34383 13.5125L7.76258 14.1354C7.98619 14.902 8.33375 15.5211 8.80525 15.9926C9.27611 16.4635 9.88689 16.7868 10.6376 16.9625V18.2083ZM11.5001 21.0833C10.1744 21.0833 8.92855 20.8316 7.76258 20.3281C6.59661 19.8253 5.58237 19.1427 4.71987 18.2802C3.85737 17.4177 3.17472 16.4034 2.67191 15.2375C2.16847 14.0715 1.91675 12.8257 1.91675 11.5C1.91675 10.1743 2.16847 8.92843 2.67191 7.76246C3.17472 6.59649 3.85737 5.58225 4.71987 4.71975C5.58237 3.85725 6.59661 3.17428 7.76258 2.67083C8.92855 2.16803 10.1744 1.91663 11.5001 1.91663C12.8258 1.91663 14.0716 2.16803 15.2376 2.67083C16.4036 3.17428 17.4178 3.85725 18.2803 4.71975C19.1428 5.58225 19.8254 6.59649 20.3282 7.76246C20.8317 8.92843 21.0834 10.1743 21.0834 11.5C21.0834 12.8257 20.8317 14.0715 20.3282 15.2375C19.8254 16.4034 19.1428 17.4177 18.2803 18.2802C17.4178 19.1427 16.4036 19.8253 15.2376 20.3281C14.0716 20.8316 12.8258 21.0833 11.5001 21.0833Z" fill="#1C1B1F"/>
</g>
</svg>
