<svg width="33" height="34" viewBox="0 0 33 34" fill="none" xmlns="http://www.w3.org/2000/svg">
<mask id="mask0_1132_5720" style="mask-type:alpha" maskUnits="userSpaceOnUse" x="0" y="0" width="33" height="34">
<rect y="0.5" width="33" height="33" fill="#D9D9D9"/>
</mask>
<g mask="url(#mask0_1132_5720)">
<path d="M9.41176 29.059C8.74853 29.059 8.18056 28.8231 7.70785 28.3512C7.23595 27.8785 7 27.3105 7 26.6473V9.76493H9.41176V26.6473H22.6765V29.059H9.41176ZM14.2353 24.2355C13.5721 24.2355 13.0045 23.9996 12.5326 23.5277C12.0599 23.055 11.8235 22.487 11.8235 21.8237V7.35317C11.8235 6.68993 12.0599 6.12196 12.5326 5.64926C13.0045 5.17736 13.5721 4.94141 14.2353 4.94141H25.0882C25.7515 4.94141 26.3194 5.17736 26.7921 5.64926C27.264 6.12196 27.5 6.68993 27.5 7.35317V21.8237C27.5 22.487 27.264 23.055 26.7921 23.5277C26.3194 23.9996 25.7515 24.2355 25.0882 24.2355H14.2353Z" fill="url(#paint0_linear_1132_5720)" fill-opacity="0.9"/>
</g>
<defs>
<linearGradient id="paint0_linear_1132_5720" x1="21.4086" y1="4.94141" x2="21.4086" y2="29.059" gradientUnits="userSpaceOnUse">
<stop stop-color="#8FC175"/>
<stop offset="1" stop-color="#3A906C"/>
</linearGradient>
</defs>
</svg>
