<svg width="17" height="20" viewBox="0 0 17 20" fill="none" xmlns="http://www.w3.org/2000/svg">
<path d="M15.0085 0.285156H1.99153C1.72936 0.285783 1.46989 0.338043 1.22792 0.43895C0.985957 0.539858 0.766235 0.687438 0.581304 0.873263C0.396373 1.05909 0.249855 1.27952 0.150115 1.52197C0.0503759 1.76442 -0.000631306 2.02414 6.06299e-06 2.28631V15.42C-0.00064004 15.6822 0.050359 15.9419 0.150091 16.1843C0.249823 16.4268 0.396335 16.6472 0.581261 16.833C0.766186 17.0189 0.985904 17.1664 1.22787 17.2673C1.46983 17.3683 1.7293 17.4205 1.99146 17.4211H13.0075L12.4925 15.624L13.736 16.78L14.9114 17.868L17 19.7137V2.28631C17.0006 2.02415 16.9496 1.76443 16.8499 1.52197C16.7502 1.27952 16.6037 1.05909 16.4187 0.873267C16.2338 0.687441 16.0141 0.53986 15.7721 0.438952C15.5302 0.338043 15.2707 0.285783 15.0085 0.285156ZM11.2588 12.9721C11.2588 12.9721 10.9092 12.5543 10.6177 12.1851C11.8903 11.8257 12.376 11.0291 12.376 11.0291C12.0265 11.2618 11.6517 11.4541 11.2588 11.6022C10.8069 11.7952 10.3343 11.9353 9.8503 12.02C9.01832 12.1732 8.16508 12.1699 7.33431 12.0103C6.84667 11.9148 6.36877 11.775 5.90657 11.5926C5.66288 11.4989 5.42592 11.3885 5.19735 11.2623C5.16827 11.2428 5.13912 11.2331 5.10996 11.2137C5.09536 11.2064 5.08219 11.1966 5.07112 11.1846C4.89627 11.0875 4.79885 11.0195 4.79885 11.0195C4.79885 11.0195 5.26515 11.7964 6.49885 12.1657C6.20746 12.5349 5.84807 12.972 5.84807 12.972C3.70116 12.904 2.88522 11.4955 2.88522 11.4955C2.88522 8.36772 4.28407 5.832 4.28407 5.832C5.68292 4.78278 7.01376 4.812 7.01376 4.812L7.11092 4.92861C5.36231 5.43363 4.556 6.20115 4.556 6.20115C4.556 6.20115 4.7697 6.08461 5.12909 5.91946C6.16854 5.46285 6.99431 5.33661 7.33431 5.30746C7.38868 5.29617 7.44394 5.28966 7.49946 5.288C8.15044 5.2032 8.80923 5.19669 9.46176 5.26861C10.4879 5.38581 11.4812 5.7026 12.3857 6.20115C12.3857 6.20115 11.6183 5.47261 9.96685 4.96746L10.1028 4.81207C10.1028 4.81207 11.4337 4.78285 12.8325 5.83207C12.8325 5.83207 14.2315 8.36746 14.2315 11.4955C14.2315 11.4955 13.4057 12.9041 11.2588 12.9721ZM6.7417 8.43546C6.188 8.43546 5.75092 8.92115 5.75092 9.51369C5.75092 10.1062 6.1977 10.592 6.7417 10.592C7.29546 10.592 7.73254 10.1063 7.73254 9.51369C7.74231 8.92115 7.29539 8.43546 6.7417 8.43546ZM10.2875 8.43546C9.7337 8.43546 9.29654 8.92115 9.29654 9.51369C9.29654 10.1062 9.74346 10.592 10.2875 10.592C10.8412 10.592 11.2782 10.1063 11.2782 9.51369C11.2782 8.92108 10.8412 8.43546 10.2875 8.43546Z" fill="white"/>
</svg>