<svg width="46" height="45" viewBox="0 0 46 45" fill="none" xmlns="http://www.w3.org/2000/svg">
<rect width="46" height="45" rx="8" fill="white" fill-opacity="0.1"/>
<g clip-path="url(#clip0_392_2411)">
<path d="M31.4228 10H14.5773C14.238 10.0008 13.9022 10.0681 13.5891 10.1979C13.2759 10.3277 12.9916 10.5176 12.7523 10.7568C12.513 10.9959 12.3233 11.2795 12.1943 11.5915C12.0652 11.9035 11.9992 12.2377 12 12.575V29.475C11.9992 29.8124 12.0652 30.1466 12.1942 30.4585C12.3233 30.7705 12.5129 31.0542 12.7522 31.2933C12.9915 31.5324 13.2759 31.7223 13.589 31.8521C13.9021 31.982 14.2379 32.0492 14.5772 32.05H28.8332L28.1668 29.7375L29.776 31.225L31.2971 32.625L34 35V12.575C34.0008 12.2377 33.9348 11.9035 33.8058 11.5915C33.6767 11.2795 33.4871 10.9959 33.2478 10.7568C33.0085 10.5176 32.7241 10.3277 32.411 10.1979C32.0979 10.0681 31.7621 10.0008 31.4228 10V10ZM26.5703 26.3251C26.5703 26.3251 26.1177 25.7875 25.7406 25.3125C27.3875 24.85 28.016 23.825 28.016 23.825C27.5637 24.1244 27.0787 24.3718 26.5703 24.5624C25.9855 24.8107 25.3738 24.9911 24.7475 25.1C23.6708 25.2971 22.5666 25.2929 21.4915 25.0875C20.8604 24.9647 20.2419 24.7848 19.6438 24.5501C19.3284 24.4295 19.0218 24.2874 18.726 24.125C18.6884 24.1 18.6506 24.0875 18.6129 24.0625C18.594 24.0531 18.577 24.0405 18.5626 24.0251C18.3364 23.9 18.2103 23.8125 18.2103 23.8125C18.2103 23.8125 18.8137 24.8123 20.4103 25.2875C20.0332 25.7626 19.5681 26.325 19.5681 26.325C16.7897 26.2375 15.7338 24.425 15.7338 24.425C15.7338 20.4004 17.5441 17.1375 17.5441 17.1375C19.3544 15.7874 21.0766 15.825 21.0766 15.825L21.2024 15.975C18.9395 16.6249 17.896 17.6125 17.896 17.6125C17.896 17.6125 18.1726 17.4625 18.6376 17.25C19.9828 16.6625 21.0515 16.5 21.4915 16.4625C21.5618 16.448 21.6333 16.4396 21.7052 16.4375C22.5476 16.3284 23.4002 16.32 24.2446 16.4125C25.5726 16.5633 26.858 16.971 28.0286 17.6125C28.0286 17.6125 27.0355 16.675 24.8983 16.025L25.0743 15.8251C25.0743 15.8251 26.7966 15.7875 28.6068 17.1376C28.6068 17.1376 30.4172 20.4 30.4172 24.425C30.4172 24.425 29.3486 26.2375 26.5703 26.325V26.3251ZM20.7246 20.4875C20.008 20.4875 19.4424 21.1125 19.4424 21.875C19.4424 22.6374 20.0206 23.2625 20.7246 23.2625C21.4412 23.2625 22.0068 22.6375 22.0068 21.875C22.0195 21.1125 21.4412 20.4875 20.7246 20.4875M25.3132 20.4875C24.5966 20.4875 24.0308 21.1125 24.0308 21.875C24.0308 22.6374 24.6092 23.2625 25.3132 23.2625C26.0297 23.2625 26.5954 22.6375 26.5954 21.875C26.5954 21.1124 26.0297 20.4875 25.3132 20.4875Z" fill="white"/>
</g>
<rect x="0.5" y="0.5" width="45" height="44" rx="7.5" stroke="white" stroke-opacity="0.25"/>
<defs>
<clipPath id="clip0_392_2411">
<rect width="22" height="25" fill="white" transform="translate(12 10)"/>
</clipPath>
</defs>
</svg>
