<svg width="57" height="57" viewBox="0 0 57 57" fill="none" xmlns="http://www.w3.org/2000/svg">
<circle cx="28.5" cy="28.5" r="27.93" fill="#FAFAFA" stroke="#E9EBEC" stroke-width="1.14"/>
<mask id="mask0_1_100" style="mask-type:alpha" maskUnits="userSpaceOnUse" x="9" y="9" width="39" height="39">
<rect x="9.87988" y="9.88" width="37.24" height="37.24" fill="#D9D9D9"/>
</mask>
<g mask="url(#mask0_1_100)">
<path d="M18.9573 36.4134C20.2762 35.4049 21.7503 34.6094 23.3796 34.027C25.0088 33.4456 26.7156 33.1549 28.5001 33.1549C30.2845 33.1549 31.9913 33.4456 33.6206 34.027C35.2498 34.6094 36.7239 35.4049 38.0428 36.4134C38.948 35.3531 39.6529 34.1506 40.1577 32.8058C40.6615 31.461 40.9134 30.0257 40.9134 28.4999C40.9134 25.0604 39.7047 22.1314 37.2872 19.7129C34.8686 17.2954 31.9396 16.0866 28.5001 16.0866C25.0605 16.0866 22.132 17.2954 19.7145 19.7129C17.296 22.1314 16.0867 25.0604 16.0867 28.4999C16.0867 30.0257 16.3391 31.461 16.8439 32.8058C17.3477 34.1506 18.0522 35.3531 18.9573 36.4134ZM28.5001 30.0516C26.9743 30.0516 25.6874 29.5282 24.6395 28.4813C23.5927 27.4334 23.0692 26.1466 23.0692 24.6208C23.0692 23.095 23.5927 21.8081 24.6395 20.7602C25.6874 19.7134 26.9743 19.1899 28.5001 19.1899C30.0259 19.1899 31.3127 19.7134 32.3606 20.7602C33.4075 21.8081 33.9309 23.095 33.9309 24.6208C33.9309 26.1466 33.4075 27.4334 32.3606 28.4813C31.3127 29.5282 30.0259 30.0516 28.5001 30.0516ZM28.5001 44.0166C26.3536 44.0166 24.3364 43.609 22.4486 42.7939C20.5607 41.9798 18.9185 40.8745 17.522 39.478C16.1255 38.0815 15.0202 36.4393 14.2061 34.5514C13.391 32.6636 12.9834 30.6464 12.9834 28.4999C12.9834 26.3535 13.391 24.3363 14.2061 22.4484C15.0202 20.5606 16.1255 18.9184 17.522 17.5219C18.9185 16.1254 20.5607 15.0196 22.4486 14.2044C24.3364 13.3903 26.3536 12.9833 28.5001 12.9833C30.6465 12.9833 32.6637 13.3903 34.5516 14.2044C36.4394 15.0196 38.0816 16.1254 39.4781 17.5219C40.8746 18.9184 41.9799 20.5606 42.794 22.4484C43.6092 24.3363 44.0167 26.3535 44.0167 28.4999C44.0167 30.6464 43.6092 32.6636 42.794 34.5514C41.9799 36.4393 40.8746 38.0815 39.4781 39.478C38.0816 40.8745 36.4394 41.9798 34.5516 42.7939C32.6637 43.609 30.6465 44.0166 28.5001 44.0166Z" fill="#8DBC1A"/>
</g>
</svg>
