<svg width="19" height="20" viewBox="0 0 19 20" fill="none" xmlns="http://www.w3.org/2000/svg">
<g clip-path="url(#clip0_960_15510)">
<path d="M3.125 20H14.375C15.0723 19.998 15.7403 19.7195 16.2324 19.2255C16.7245 18.7316 17.0006 18.0625 17 17.3652V11.7125C17 11.5136 16.921 11.3228 16.7803 11.1822C16.6397 11.0415 16.4489 10.9625 16.25 10.9625C16.0511 10.9625 15.8603 11.0415 15.7197 11.1822C15.579 11.3228 15.5 11.5136 15.5 11.7125V17.3652C15.501 17.6648 15.3831 17.9526 15.1722 18.1653C14.9613 18.378 14.6746 18.4984 14.375 18.5H3.125C2.82543 18.4984 2.53873 18.378 2.32781 18.1653C2.1169 17.9526 1.999 17.6648 2 17.3652V6.13475C1.999 5.83518 2.1169 5.54745 2.32781 5.3347C2.53873 5.12196 2.82543 5.00159 3.125 5H8.75C8.94891 5 9.13968 4.92098 9.28033 4.78033C9.42098 4.63968 9.5 4.44891 9.5 4.25C9.5 4.05109 9.42098 3.86032 9.28033 3.71967C9.13968 3.57902 8.94891 3.5 8.75 3.5H3.125C2.42773 3.50199 1.75973 3.78052 1.26759 4.27448C0.775461 4.76845 0.499402 5.43748 0.500001 6.13475V17.3652C0.499402 18.0625 0.775461 18.7316 1.26759 19.2255C1.75973 19.7195 2.42773 19.998 3.125 20Z" fill="black"/>
<path d="M7.59136 9.90819L6.99961 12.6187C6.97283 12.7416 6.9774 12.8693 7.01292 12.9901C7.04844 13.1108 7.11376 13.2206 7.20286 13.3094C7.29319 13.3961 7.40307 13.4596 7.52318 13.4947C7.64329 13.5299 7.7701 13.5355 7.89286 13.5112L10.5974 12.9179C10.7378 12.8871 10.8664 12.8166 10.9679 12.7147L17.8034 5.87919C18.0123 5.67026 18.1781 5.4222 18.2912 5.14919C18.4043 4.87619 18.4625 4.58358 18.4625 4.28807C18.4625 3.99256 18.4043 3.69995 18.2912 3.42694C18.1781 3.15394 18.0123 2.90588 17.8034 2.69694C17.3749 2.28755 16.8052 2.05908 16.2126 2.05908C15.62 2.05908 15.0503 2.28755 14.6219 2.69694L7.79686 9.53919C7.69443 9.63997 7.6231 9.76805 7.59136 9.90819ZM15.6824 3.75819C15.825 3.6215 16.015 3.54519 16.2126 3.54519C16.4102 3.54519 16.6002 3.6215 16.7429 3.75819C16.8816 3.89967 16.9593 4.08991 16.9593 4.28807C16.9593 4.48622 16.8816 4.67647 16.7429 4.81794L16.2126 5.34819L15.1521 4.28769L15.6824 3.75819ZM9.00736 10.4437L14.0879 5.35044L15.1379 6.40569L10.0551 11.5004L8.70886 11.7959L9.00736 10.4437Z" fill="black"/>
</g>
<defs>
<clipPath id="clip0_960_15510">
<rect width="18" height="18" fill="white" transform="translate(0.5 2)"/>
</clipPath>
</defs>
</svg>
