<svg width="17" height="26" viewBox="0 0 17 26" fill="none" xmlns="http://www.w3.org/2000/svg">
<path d="M6.35104 13.3468L4.78082 24.3383L15.7723 8.63613H6.35104L10.0894 0.785034H6.35104L1.64038 13.3468H6.35104Z" fill="#47C56A"/>
<path d="M4.78067 25.1235C4.66817 25.1232 4.55703 25.0989 4.45472 25.0521C4.35241 25.0053 4.2613 24.9371 4.18753 24.8522C4.11375 24.7672 4.059 24.6675 4.02698 24.5596C3.99495 24.4518 3.98638 24.3383 4.00184 24.2269L5.57206 13.2354C5.60163 13.0292 5.71188 12.8433 5.87855 12.7184C6.04522 12.5936 6.25467 12.54 6.46081 12.5696C6.66695 12.5992 6.8529 12.7094 6.97776 12.8761C7.10261 13.0428 7.15615 13.2522 7.12658 13.4583L6.02115 21.1948L14.2648 9.42131H11.0615C10.9279 9.42117 10.7965 9.38691 10.6797 9.32177C10.563 9.25663 10.4649 9.16276 10.3946 9.04907C10.3243 8.93537 10.2842 8.80562 10.2781 8.67209C10.272 8.53856 10.3 8.40568 10.3597 8.28604L13.7168 1.57022H6.89576L2.77393 12.5617L6.23782 12.5696C6.44605 12.5696 6.64574 12.6523 6.79298 12.7996C6.94022 12.9468 7.02293 13.1465 7.02293 13.3547C7.02293 13.5629 6.94022 13.7626 6.79298 13.9099C6.64574 14.0571 6.44605 14.1398 6.23782 14.1398L1.64024 14.132C1.5137 14.1309 1.38928 14.0994 1.27745 14.0402C1.16561 13.981 1.06964 13.8958 0.997614 13.7917C0.925587 13.6877 0.879611 13.5679 0.863559 13.4424C0.847506 13.3169 0.861847 13.1893 0.905373 13.0705L5.61603 0.508751C5.67224 0.359277 5.7727 0.230498 5.904 0.139599C6.0353 0.0486987 6.1912 0 6.35089 0L14.9871 0C15.1208 0.000138038 15.2522 0.0344014 15.3689 0.0995439C15.4856 0.164687 15.5838 0.258551 15.6541 0.372245C15.7244 0.485938 15.7645 0.615696 15.7706 0.749225C15.7767 0.882753 15.7486 1.01563 15.689 1.13527L12.3319 7.85109H15.7722C15.9158 7.85122 16.0566 7.89072 16.1793 7.96532C16.3021 8.03991 16.402 8.14673 16.4682 8.27416C16.5344 8.40158 16.5644 8.54473 16.5549 8.68802C16.5455 8.83132 16.4969 8.96926 16.4144 9.08686L5.42289 24.789C5.35055 24.8922 5.25443 24.9765 5.14264 25.0347C5.03086 25.0929 4.90671 25.1234 4.78067 25.1235Z" fill="#144E46"/>
</svg>
