<svg width="19" height="16" viewBox="0 0 19 16" fill="none" xmlns="http://www.w3.org/2000/svg">
<path d="M18.5723 2.46351C17.9006 2.75647 17.1902 2.95117 16.463 3.04162C17.2293 2.58698 17.8023 1.86707 18.0734 1.01826C17.3558 1.44384 16.5707 1.74354 15.7521 1.90438C15.2501 1.36844 14.5986 0.995845 13.8821 0.834998C13.1657 0.674152 12.4174 0.73249 11.7346 1.00244C11.0517 1.27238 10.4658 1.74145 10.053 2.34871C9.64017 2.95597 9.41953 3.67335 9.41972 4.40763C9.41972 4.6978 9.44427 4.97681 9.50454 5.24242C8.04821 5.17102 6.62335 4.79305 5.32312 4.13322C4.02288 3.47339 2.87655 2.54656 1.95908 1.41333C1.48903 2.21894 1.34371 3.17343 1.55271 4.08243C1.76171 4.99142 2.30932 5.78659 3.08403 6.306C2.50454 6.29046 1.93728 6.13582 1.43008 5.85512V5.8953C1.43105 6.74061 1.72322 7.55978 2.25741 8.21492C2.7916 8.87005 3.53518 9.32114 4.363 9.49226C4.04983 9.57479 3.72707 9.61532 3.40322 9.61279C3.17062 9.61692 2.93826 9.59597 2.71016 9.55029C2.94669 10.2769 3.40265 10.9122 4.01524 11.3689C4.62783 11.8256 5.36694 12.0812 6.13079 12.1004C4.83501 13.1138 3.2369 13.6635 1.5919 13.6617C1.29169 13.6617 1.00376 13.6483 0.71582 13.6115C2.38973 14.6902 4.34032 15.2608 6.33167 15.2543C13.068 15.2543 16.7509 9.67417 16.7509 4.8373C16.7509 4.67548 16.7453 4.51924 16.7375 4.36411C17.4595 3.84737 18.0813 3.20331 18.5723 2.46351Z" fill="#949494"/>
</svg>
