<svg width="23" height="24" viewBox="0 0 23 24" fill="none" xmlns="http://www.w3.org/2000/svg">
<path d="M20.718 8.12475L14.718 3.32475C13.8774 2.64681 12.83 2.2771 11.75 2.2771C10.6701 2.2771 9.62266 2.64681 8.78201 3.32475L2.78202 8.12475C2.22456 8.56884 1.77472 9.13322 1.46614 9.77567C1.15755 10.4181 0.998205 11.122 1.00002 11.8348V17.9118C1.0016 19.171 1.50256 20.3783 2.39301 21.2688C3.28347 22.1592 4.49072 22.6602 5.75002 22.6618H17.75C19.0093 22.6602 20.2166 22.1592 21.107 21.2688C21.9975 20.3783 22.4984 19.171 22.5 17.9118V11.8348C22.5016 11.1221 22.3422 10.4182 22.0336 9.77582C21.725 9.1334 21.2753 8.56899 20.718 8.12475Z" fill="#47C56A"/>
<path d="M17.75 22.6617H5.75001C4.49072 22.6601 3.28346 22.1592 2.39301 21.2687C1.50256 20.3783 1.0016 19.171 1.00001 17.9117V10.8347C0.998354 10.1222 1.15777 9.41846 1.46635 8.7762C1.77493 8.13393 2.22469 7.56971 2.78201 7.12573L9.40701 1.82573C10.071 1.29135 10.8977 1 11.75 1C12.6023 1 13.429 1.29135 14.093 1.82573L20.718 7.12573C21.2753 7.56997 21.725 8.13437 22.0336 8.77679C22.3422 9.41921 22.5016 10.123 22.5 10.8357V17.9117C22.4984 19.171 21.9975 20.3783 21.107 21.2687C20.2166 22.1592 19.0093 22.6601 17.75 22.6617ZM3.72001 8.29573C3.33844 8.59962 3.03051 8.98584 2.81925 9.42551C2.60798 9.86518 2.49885 10.3469 2.50001 10.8347V17.9117C2.50107 18.7734 2.84382 19.5994 3.45308 20.2087C4.06235 20.8179 4.88838 21.1607 5.75001 21.1617H17.75C18.6116 21.1607 19.4377 20.8179 20.0469 20.2087C20.6562 19.5994 20.999 18.7734 21 17.9117V10.8347C21.0012 10.3469 20.892 9.86518 20.6808 9.42551C20.4695 8.98584 20.1616 8.59962 19.78 8.29573L13.155 2.99573C12.7572 2.67443 12.2613 2.49917 11.75 2.49917C11.2387 2.49917 10.7428 2.67443 10.345 2.99573L3.72001 8.29573Z" fill="#144E46" stroke="#144E46"/>
<circle cx="12" cy="14.5618" r="3" fill="white"/>
</svg>
