<svg width="22" height="22" viewBox="0 0 22 22" fill="none" xmlns="http://www.w3.org/2000/svg">
<path d="M16.5814 20.851H5.41861C4.24718 20.8496 3.12415 20.3836 2.29582 19.5552C1.46749 18.7269 1.00149 17.6039 1.00001 16.4324V9.84919C0.998469 9.18636 1.14676 8.53174 1.43382 7.93428C1.72087 7.33683 2.13925 6.81198 2.65768 6.39896L8.82047 1.46874C9.43813 0.971644 10.2072 0.700623 11 0.700623C11.7928 0.700623 12.5619 0.971644 13.1795 1.46874L19.3423 6.39896C19.8607 6.81221 20.2791 7.33724 20.5661 7.93484C20.8531 8.53244 21.0015 9.18716 21 9.85012V16.4324C20.9985 17.6039 20.5325 18.7269 19.7042 19.5552C18.8759 20.3836 17.7528 20.8496 16.5814 20.851ZM3.53024 7.48734C3.17529 7.77002 2.88885 8.1293 2.69232 8.5383C2.4958 8.9473 2.39428 9.39543 2.39536 9.84919V16.4324C2.39634 17.234 2.71518 18.0024 3.28194 18.5691C3.84869 19.1359 4.6171 19.4547 5.41861 19.4557H16.5814C17.3829 19.4547 18.1513 19.1359 18.7181 18.5691C19.2848 18.0024 19.6037 17.234 19.6046 16.4324V9.84919C19.6057 9.39543 19.5042 8.9473 19.3077 8.5383C19.1112 8.1293 18.8247 7.77002 18.4698 7.48734L12.307 2.55711C11.9369 2.25823 11.4757 2.0952 11 2.0952C10.5243 2.0952 10.0631 2.25823 9.69302 2.55711L3.53024 7.48734Z" fill="#195F56" stroke="#195F56"/>
<circle cx="11.2325" cy="13.3162" r="2.79069" fill="#195F56"/>
</svg>
