<svg width="22" height="22" viewBox="0 0 22 22" fill="none" xmlns="http://www.w3.org/2000/svg">
<path d="M11 16.5C11.3117 16.5 11.5731 16.3944 11.7843 16.1832C11.9948 15.9727 12.1 15.7117 12.1 15.4C12.1 15.0883 11.9948 14.8269 11.7843 14.6157C11.5731 14.4052 11.3117 14.3 11 14.3C10.6883 14.3 10.4273 14.4052 10.2168 14.6157C10.0056 14.8269 9.9 15.0883 9.9 15.4C9.9 15.7117 10.0056 15.9727 10.2168 16.1832C10.4273 16.3944 10.6883 16.5 11 16.5ZM9.9 12.1H12.1V5.5H9.9V12.1ZM11 22C9.47833 22 8.04833 21.7111 6.71 21.1332C5.37167 20.5561 4.2075 19.7725 3.2175 18.7825C2.2275 17.7925 1.44393 16.6283 0.8668 15.29C0.288933 13.9517 0 12.5217 0 11C0 9.47833 0.288933 8.04833 0.8668 6.71C1.44393 5.37167 2.2275 4.2075 3.2175 3.2175C4.2075 2.2275 5.37167 1.44357 6.71 0.8657C8.04833 0.288567 9.47833 0 11 0C12.5217 0 13.9517 0.288567 15.29 0.8657C16.6283 1.44357 17.7925 2.2275 18.7825 3.2175C19.7725 4.2075 20.5561 5.37167 21.1332 6.71C21.7111 8.04833 22 9.47833 22 11C22 12.5217 21.7111 13.9517 21.1332 15.29C20.5561 16.6283 19.7725 17.7925 18.7825 18.7825C17.7925 19.7725 16.6283 20.5561 15.29 21.1332C13.9517 21.7111 12.5217 22 11 22Z" fill="url(#paint0_linear_827_963)"/>
<defs>
<linearGradient id="paint0_linear_827_963" x1="12.3497" y1="0" x2="12.3497" y2="22" gradientUnits="userSpaceOnUse">
<stop stop-color="#FBBE4F"/>
<stop offset="1" stop-color="#B76C3E"/>
</linearGradient>
</defs>
</svg>
