<svg width="22" height="22" viewBox="0 0 22 22" fill="none" xmlns="http://www.w3.org/2000/svg">
<g clip-path="url(#clip0_392_1726)">
<path d="M17.062 0H4.938C2.21082 0 0 2.21082 0 4.938V17.062C0 19.7892 2.21082 22 4.938 22H17.062C19.7892 22 22 19.7892 22 17.062V4.938C22 2.21082 19.7892 0 17.062 0Z" fill="url(#paint0_linear_392_1726)"/>
<path d="M7.62023 3.81018H14.4786C14.631 3.88638 14.8596 3.88638 15.012 3.96259C15.6808 4.07098 16.3061 4.36374 16.8176 4.80797C17.3292 5.25221 17.7067 5.83031 17.9077 6.47731C18.0203 6.85015 18.0968 7.23292 18.1363 7.62036V14.3263C18.0274 15.1762 17.7136 15.9869 17.2219 16.6886C16.8001 17.1773 16.2713 17.5622 15.6765 17.8133C15.0818 18.0644 14.4372 18.175 13.7927 18.1365H8.07745C7.0575 18.186 6.05466 17.8607 5.25792 17.222C4.77341 16.8034 4.39107 16.2795 4.14012 15.6905C3.88917 15.1014 3.77627 14.4627 3.81005 13.8233V8.48909C3.79746 8.10648 3.82298 7.72358 3.88625 7.34603C3.9632 6.56478 4.28442 5.82766 4.80427 5.23941C5.32411 4.65117 6.01613 4.24172 6.78199 4.06927L7.62023 3.81018ZM5.25792 11.0495V14.0215C5.22543 14.3999 5.27606 14.7809 5.40626 15.1377C5.53647 15.4946 5.7431 15.8186 6.01169 16.0872C6.28029 16.3558 6.60434 16.5625 6.96118 16.6927C7.31801 16.8229 7.699 16.8735 8.07745 16.841C10.0587 16.9172 12.04 16.9172 14.0213 16.841C15.774 16.841 16.7647 15.7742 16.8409 14.0215C16.9171 12.0402 16.9171 10.0589 16.8409 8.07759C16.8606 7.70212 16.8012 7.32669 16.6665 6.97567C16.5318 6.62464 16.3248 6.30586 16.0589 6.04C15.7931 5.77413 15.4743 5.56713 15.1233 5.43242C14.7722 5.29771 14.3968 5.23831 14.0213 5.25805C12.04 5.18185 10.0587 5.18185 8.07745 5.25805C7.699 5.22556 7.31801 5.27619 6.96118 5.4064C6.60434 5.5366 6.28029 5.74323 6.01169 6.01183C5.7431 6.28042 5.53647 6.60448 5.40626 6.96131C5.27606 7.31815 5.22543 7.69913 5.25792 8.07759V11.0495Z" fill="white"/>
<path d="M7.3457 11.08C7.34772 10.0903 7.74176 9.14171 8.44158 8.44189C9.14141 7.74207 10.09 7.34802 11.0797 7.34601C12.0639 7.3655 13.0024 7.76516 13.6984 8.46124C14.3945 9.15731 14.7942 10.0958 14.8137 11.08C14.8116 12.0697 14.4176 13.0183 13.7178 13.7181C13.018 14.4179 12.0694 14.812 11.0797 14.814C10.0955 14.7945 9.15701 14.3948 8.46093 13.6987C7.76486 13.0027 7.3652 12.0642 7.3457 11.08V11.08ZM11.0797 8.71767C10.6168 8.71015 10.1623 8.841 9.77429 9.09346C9.38629 9.34593 9.08252 9.7085 8.9019 10.1347C8.72128 10.5609 8.67205 11.0314 8.76051 11.4857C8.84897 11.9401 9.0711 12.3577 9.39842 12.685C9.72575 13.0124 10.1434 13.2345 10.5977 13.323C11.0521 13.4114 11.5225 13.3622 11.9488 13.1816C12.375 13.0009 12.7375 12.6972 12.99 12.3092C13.2425 11.9212 13.3733 11.4666 13.3658 11.0038C13.3658 10.3975 13.1249 9.81599 12.6962 9.38726C12.2675 8.95853 11.686 8.71767 11.0797 8.71767V8.71767Z" fill="white"/>
<path d="M13.9756 7.19361C13.9714 7.07238 13.9921 6.95157 14.0366 6.8387C14.081 6.72583 14.1482 6.62331 14.234 6.53753C14.3198 6.45175 14.4223 6.38455 14.5352 6.3401C14.648 6.29565 14.7689 6.27491 14.8901 6.27917C15.1273 6.29522 15.3507 6.39671 15.5188 6.56485C15.687 6.73299 15.7885 6.95637 15.8045 7.19361C15.8045 7.43614 15.7082 7.66873 15.5367 7.84022C15.3652 8.01172 15.1326 8.10806 14.8901 8.10806C14.6476 8.10806 14.415 8.01172 14.2435 7.84022C14.072 7.66873 13.9756 7.43614 13.9756 7.19361V7.19361Z" fill="white"/>
</g>
<defs>
<linearGradient id="paint0_linear_392_1726" x1="-1.40215" y1="23.2193" x2="24.5071" y2="-2.30897" gradientUnits="userSpaceOnUse">
<stop stop-color="#FED576"/>
<stop offset="0.26" stop-color="#F47133"/>
<stop offset="0.61" stop-color="#BC3081"/>
<stop offset="1" stop-color="#4C63D2"/>
</linearGradient>
<clipPath id="clip0_392_1726">
<rect width="22" height="22" fill="white"/>
</clipPath>
</defs>
</svg>
