<svg width="22" height="22" viewBox="0 0 22 22" fill="none" xmlns="http://www.w3.org/2000/svg">
<g clip-path="url(#clip0_576_160)">
<path d="M17.062 0H4.938C2.21082 0 0 2.21082 0 4.938V17.062C0 19.7892 2.21082 22 4.938 22H17.062C19.7892 22 22 19.7892 22 17.062V4.938C22 2.21082 19.7892 0 17.062 0Z" fill="url(#paint0_linear_576_160)"/>
<path d="M7.62047 3.81018H14.4788C14.6312 3.88638 14.8598 3.88638 15.0122 3.96259C15.681 4.07098 16.3063 4.36374 16.8179 4.80797C17.3294 5.25221 17.7069 5.83031 17.908 6.47731C18.0205 6.85015 18.0971 7.23292 18.1366 7.62036V14.3263C18.0276 15.1762 17.7138 15.9869 17.2221 16.6886C16.8003 17.1773 16.2715 17.5622 15.6768 17.8133C15.082 18.0644 14.4374 18.175 13.793 18.1365H8.0777C7.05775 18.186 6.05491 17.8607 5.25816 17.222C4.77366 16.8034 4.39131 16.2795 4.14036 15.6905C3.88942 15.1014 3.77651 14.4627 3.81029 13.8233V8.48909C3.7977 8.10648 3.82323 7.72358 3.88649 7.34603C3.96344 6.56478 4.28467 5.82766 4.80451 5.23941C5.32436 4.65117 6.01638 4.24172 6.78223 4.06927L7.62047 3.81018ZM5.25816 11.0495V14.0215C5.22567 14.3999 5.2763 14.7809 5.4065 15.1377C5.53671 15.4946 5.74334 15.8186 6.01194 16.0872C6.28053 16.3558 6.60459 16.5625 6.96142 16.6927C7.31826 16.8229 7.69924 16.8735 8.0777 16.841C10.059 16.9172 12.0403 16.9172 14.0216 16.841C15.7743 16.841 16.7649 15.7742 16.8411 14.0215C16.9173 12.0402 16.9173 10.0589 16.8411 8.07759C16.8609 7.70212 16.8015 7.32669 16.6667 6.97567C16.532 6.62464 16.325 6.30586 16.0592 6.04C15.7933 5.77413 15.4745 5.56713 15.1235 5.43242C14.7725 5.29771 14.397 5.23831 14.0216 5.25805C12.0403 5.18185 10.059 5.18185 8.0777 5.25805C7.69924 5.22556 7.31826 5.27619 6.96142 5.4064C6.60459 5.5366 6.28053 5.74323 6.01194 6.01183C5.74334 6.28042 5.53671 6.60448 5.4065 6.96131C5.2763 7.31815 5.22567 7.69913 5.25816 8.07759V11.0495Z" fill="white"/>
<path d="M7.34619 11.08C7.34821 10.0904 7.74225 9.14177 8.44207 8.44195C9.14189 7.74213 10.0905 7.34808 11.0802 7.34607C12.0644 7.36556 13.0028 7.76522 13.6989 8.4613C14.395 9.15737 14.7947 10.0958 14.8142 11.08C14.8121 12.0697 14.4181 13.0183 13.7183 13.7181C13.0184 14.418 12.0699 14.812 11.0802 14.814C10.096 14.7945 9.1575 14.3949 8.46142 13.6988C7.76534 13.0027 7.36569 12.0643 7.34619 11.08ZM11.0802 8.71773C10.6173 8.71021 10.1628 8.84106 9.77478 9.09352C9.38678 9.34599 9.083 9.70856 8.90239 10.1348C8.72177 10.561 8.67254 11.0314 8.761 11.4858C8.84946 11.9402 9.07159 12.3578 9.39891 12.6851C9.72623 13.0124 10.1438 13.2346 10.5982 13.323C11.0526 13.4115 11.523 13.3622 11.9492 13.1816C12.3755 13.001 12.738 12.6972 12.9905 12.3092C13.243 11.9212 13.3738 11.4667 13.3663 11.0038C13.3663 10.3975 13.1254 9.81605 12.6967 9.38732C12.268 8.95859 11.6865 8.71773 11.0802 8.71773Z" fill="white"/>
<path d="M13.9759 7.19368C13.9716 7.07244 13.9924 6.95163 14.0368 6.83876C14.0813 6.72589 14.1485 6.62337 14.2342 6.53759C14.32 6.45182 14.4225 6.38461 14.5354 6.34016C14.6483 6.29571 14.7691 6.27497 14.8903 6.27923C15.1276 6.29528 15.351 6.39677 15.5191 6.56491C15.6872 6.73305 15.7887 6.95643 15.8048 7.19368C15.8048 7.4362 15.7084 7.66879 15.5369 7.84029C15.3654 8.01178 15.1329 8.10812 14.8903 8.10812C14.6478 8.10812 14.4152 8.01178 14.2437 7.84029C14.0722 7.66879 13.9759 7.4362 13.9759 7.19368Z" fill="white"/>
</g>
<defs>
<linearGradient id="paint0_linear_576_160" x1="-1.40215" y1="23.2193" x2="24.5071" y2="-2.30897" gradientUnits="userSpaceOnUse">
<stop stop-color="#FED576"/>
<stop offset="0.26" stop-color="#F47133"/>
<stop offset="0.61" stop-color="#BC3081"/>
<stop offset="1" stop-color="#4C63D2"/>
</linearGradient>
<clipPath id="clip0_576_160">
<rect width="22" height="22" fill="white"/>
</clipPath>
</defs>
</svg>
