<svg width="18" height="20" viewBox="0 0 18 20" fill="none" xmlns="http://www.w3.org/2000/svg">
<mask id="path-1-outside-1_960_16312" maskUnits="userSpaceOnUse" x="-0.121094" y="-0.150391" width="13" height="12" fill="black">
<rect fill="white" x="-0.121094" y="-0.150391" width="13" height="12"/>
<path fill-rule="evenodd" clip-rule="evenodd" d="M6.22236 0.849609H1.79603C1.08426 0.849609 0.644606 1.6261 1.01082 2.23644L5.95562 10.4778C6.12111 10.7536 6.41917 10.9223 6.74083 10.9223H11.1672C11.8789 10.9223 12.3186 10.1459 11.9524 9.53551L7.00757 1.29419C6.84208 1.01837 6.54402 0.849609 6.22236 0.849609ZM6.22236 1.30746C6.38318 1.30746 6.53221 1.39184 6.61497 1.52975L11.5598 9.77108C11.7429 10.0763 11.523 10.4645 11.1672 10.4645H6.74083C6.57999 10.4645 6.43096 10.3801 6.34822 10.2422L1.40343 2.00088C1.22031 1.69571 1.44015 1.30746 1.79603 1.30746H6.22236Z"/>
</mask>
<path fill-rule="evenodd" clip-rule="evenodd" d="M6.22236 0.849609H1.79603C1.08426 0.849609 0.644606 1.6261 1.01082 2.23644L5.95562 10.4778C6.12111 10.7536 6.41917 10.9223 6.74083 10.9223H11.1672C11.8789 10.9223 12.3186 10.1459 11.9524 9.53551L7.00757 1.29419C6.84208 1.01837 6.54402 0.849609 6.22236 0.849609ZM6.22236 1.30746C6.38318 1.30746 6.53221 1.39184 6.61497 1.52975L11.5598 9.77108C11.7429 10.0763 11.523 10.4645 11.1672 10.4645H6.74083C6.57999 10.4645 6.43096 10.3801 6.34822 10.2422L1.40343 2.00088C1.22031 1.69571 1.44015 1.30746 1.79603 1.30746H6.22236Z" fill="#195F56"/>
<path d="M1.01082 2.23644L1.47387 1.95861L1.47386 1.95861L1.01082 2.23644ZM5.95562 10.4778L5.49257 10.7556L5.49257 10.7556L5.95562 10.4778ZM11.9524 9.53551L12.4154 9.25769L12.4154 9.25768L11.9524 9.53551ZM7.00757 1.29419L7.47062 1.01636L7.47062 1.01636L7.00757 1.29419ZM6.61497 1.52975L7.07802 1.25192L7.078 1.25189L6.61497 1.52975ZM11.5598 9.77108L12.0228 9.49326L12.0228 9.49325L11.5598 9.77108ZM6.34822 10.2422L6.81129 9.9644L6.81127 9.96438L6.34822 10.2422ZM1.40343 2.00088L1.86648 1.72305L1.86647 1.72303L1.40343 2.00088ZM6.22236 0.309606H1.79603V1.38961H6.22236V0.309606ZM1.79603 0.309606C0.664528 0.309606 -0.0344077 1.544 0.547772 2.51428L1.47386 1.95861C1.32362 1.7082 1.50399 1.38961 1.79603 1.38961V0.309606ZM0.547769 2.51427L5.49257 10.7556L6.41866 10.1999L1.47387 1.95861L0.547769 2.51427ZM5.49257 10.7556C5.75565 11.1941 6.22948 11.4623 6.74083 11.4623V10.3823C6.60885 10.3823 6.48656 10.3131 6.41866 10.1999L5.49257 10.7556ZM6.74083 11.4623H11.1672V10.3823H6.74083V11.4623ZM11.1672 11.4623C12.2987 11.4623 12.9976 10.2279 12.4154 9.25769L11.4893 9.81333C11.6396 10.0638 11.4592 10.3823 11.1672 10.3823V11.4623ZM12.4154 9.25768L7.47062 1.01636L6.54453 1.57202L11.4893 9.81334L12.4154 9.25768ZM7.47062 1.01636C7.20754 0.577894 6.73371 0.309606 6.22236 0.309606V1.38961C6.35434 1.38961 6.47663 1.45885 6.54453 1.57202L7.47062 1.01636ZM6.22236 1.84746C6.19348 1.84746 6.16676 1.83231 6.15194 1.80761L7.078 1.25189C6.89766 0.951373 6.57288 0.767458 6.22236 0.767458V1.84746ZM6.15192 1.80758L11.0967 10.0489L12.0228 9.49325L7.07802 1.25192L6.15192 1.80758ZM11.0967 10.0489C11.0639 9.99417 11.1033 9.92449 11.1672 9.92449V11.0045C11.9428 11.0045 12.4218 10.1583 12.0228 9.49326L11.0967 10.0489ZM11.1672 9.92449H6.74083V11.0045H11.1672V9.92449ZM6.74083 9.92449C6.76966 9.92449 6.79642 9.93962 6.81129 9.9644L5.88516 10.52C6.06549 10.8206 6.39032 11.0045 6.74083 11.0045V9.92449ZM6.81127 9.96438L1.86648 1.72305L0.940377 2.27871L5.88517 10.52L6.81127 9.96438ZM1.86647 1.72303C1.89934 1.77782 1.85985 1.84746 1.79603 1.84746V0.767458C1.02044 0.767458 0.541274 1.61359 0.940387 2.27872L1.86647 1.72303ZM1.79603 1.84746H6.22236V0.767458H1.79603V1.84746Z" fill="#195F56" mask="url(#path-1-outside-1_960_16312)"/>
<path d="M11.4196 10.1033L11.4196 10.1033L16.3644 1.86196L16.3644 1.86195C16.4395 1.73675 16.3493 1.57746 16.2033 1.57746H11.7769C11.711 1.57746 11.6498 1.61207 11.6159 1.66866L11.4196 10.1033ZM11.4196 10.1033C11.3856 10.1599 11.3245 10.1945 11.2585 10.1945H6.83215C6.68614 10.1945 6.59594 10.0352 6.67106 9.90999C6.67107 9.90999 6.67107 9.90999 6.67107 9.90998L11.6159 1.66868L11.4196 10.1033ZM10.7602 1.15527L10.9902 1.29326L10.7602 1.15527L5.81543 9.3966C5.34124 10.1869 5.91049 11.1923 6.83215 11.1923H11.2585C11.675 11.1923 12.0609 10.9738 12.2752 10.6167L12.0437 10.4778L12.2752 10.6167L17.22 2.37536C17.6942 1.58505 17.1249 0.579608 16.2033 0.579608H11.7769C11.3605 0.579608 10.9745 0.79813 10.7602 1.15527Z" fill="#195F56" stroke="#195F56" stroke-width="0.540003"/>
<path d="M15.1804 12.1331C15.1804 15.5468 12.413 18.3141 8.99936 18.3141C5.58568 18.3141 2.81836 15.5468 2.81836 12.1331C2.81836 8.71947 5.58568 5.95215 8.99936 5.95215C12.413 5.95215 15.1804 8.71947 15.1804 12.1331Z" fill="white"/>
<path fill-rule="evenodd" clip-rule="evenodd" d="M15.639 12.361C15.639 16.0276 12.6667 18.9999 9.00018 18.9999C5.33363 18.9999 2.36133 16.0276 2.36133 12.361C2.36133 8.69447 5.33363 5.72217 9.00018 5.72217C12.6667 5.72217 15.639 8.69447 15.639 12.361ZM9.00018 18.542C12.4138 18.542 15.1812 15.7747 15.1812 12.361C15.1812 8.94734 12.4138 6.18002 9.00018 6.18002C5.5865 6.18002 2.81918 8.94734 2.81918 12.361C2.81918 15.7747 5.5865 18.542 9.00018 18.542Z" fill="#195F56" stroke="#195F56" stroke-width="1.08001"/>
<path fill-rule="evenodd" clip-rule="evenodd" d="M7.96873 11.2192L8.99953 9.46999L10.0303 11.2192L11.7483 11.5691L10.3739 12.9684L10.7175 14.7177L8.99953 13.843L7.28154 14.7177L7.62514 12.9684L6.25075 11.5691L7.96873 11.2192ZM7.08395 13.1306L5.89421 11.9193C5.76584 11.7886 5.71926 11.5981 5.77284 11.4229C5.82639 11.2477 5.97152 11.1159 6.15104 11.0793L7.65108 10.7739L8.56897 9.21626C8.6588 9.0638 8.82258 8.97021 8.99953 8.97021C9.1765 8.97021 9.34027 9.0638 9.43011 9.21626L10.348 10.7739L11.848 11.0793C12.0276 11.1159 12.1727 11.2477 12.2262 11.4229C12.2798 11.5981 12.2332 11.7886 12.1049 11.9193L10.9151 13.1306L11.2079 14.6213C11.2448 14.809 11.1713 15.0012 11.0188 15.1165C10.8662 15.2317 10.6612 15.2498 10.4908 15.163L8.99953 14.4039L7.50829 15.163C7.33789 15.2498 7.13291 15.2317 6.98032 15.1165C6.82774 15.0012 6.7543 14.809 6.79116 14.6213L7.08395 13.1306Z" fill="#195F56" stroke="#195F56" stroke-width="0.900006"/>
</svg>
