<svg width="14" height="23" viewBox="0 0 14 23" fill="none" xmlns="http://www.w3.org/2000/svg">
<path d="M3.71819 21.8511C3.62416 21.8508 3.53126 21.8305 3.44574 21.7914C3.36022 21.7522 3.28407 21.6953 3.2224 21.6243C3.16073 21.5533 3.11497 21.4699 3.0882 21.3798C3.06143 21.2896 3.05427 21.1948 3.06719 21.1016L4.37969 11.9141C4.40441 11.7418 4.49656 11.5864 4.63588 11.482C4.77519 11.3777 4.95026 11.3329 5.12257 11.3576C5.29488 11.3824 5.45031 11.4745 5.55467 11.6138C5.65904 11.7531 5.70378 11.9282 5.67907 12.1005L4.75507 18.5672L11.6457 8.72607H8.96819C8.85647 8.72596 8.74662 8.69732 8.64905 8.64287C8.55149 8.58842 8.46944 8.50996 8.41069 8.41493C8.35193 8.31989 8.31841 8.21143 8.31331 8.09982C8.3082 7.98821 8.33168 7.87714 8.38151 7.77714L11.1876 2.16357H5.48613L2.04082 11.3511L4.93618 11.3576C5.11023 11.3576 5.27715 11.4268 5.40022 11.5498C5.52329 11.6729 5.59243 11.8398 5.59243 12.0139C5.59243 12.1879 5.52329 12.3549 5.40022 12.4779C5.27715 12.601 5.11023 12.6701 4.93618 12.6701L1.09319 12.6636C0.987428 12.6627 0.883427 12.6364 0.789949 12.5869C0.696471 12.5374 0.616252 12.4662 0.556046 12.3792C0.495841 12.2922 0.457411 12.1921 0.443993 12.0872C0.430576 11.9822 0.442563 11.8756 0.478945 11.7763L4.41644 1.27632C4.46343 1.15138 4.5474 1.04374 4.65715 0.967761C4.7669 0.89178 4.89721 0.851074 5.03069 0.851074H12.2494C12.3612 0.85119 12.471 0.879829 12.5686 0.93428C12.6662 0.988731 12.7482 1.06719 12.807 1.16222C12.8657 1.25726 12.8992 1.36572 12.9043 1.47733C12.9094 1.58894 12.886 1.70001 12.8361 1.80001L10.03 7.41357H12.9057C13.0257 7.41368 13.1434 7.4467 13.246 7.50905C13.3486 7.5714 13.4321 7.66069 13.4874 7.7672C13.5428 7.87371 13.5679 7.99337 13.56 8.11314C13.552 8.23291 13.5114 8.34822 13.4425 8.44651L4.25501 21.5715C4.19454 21.6578 4.11419 21.7282 4.02075 21.7769C3.92732 21.8255 3.82354 21.851 3.71819 21.8511Z" fill="#195F56" stroke="#195F56" stroke-width="0.5"/>
</svg>
