<svg width="14" height="22" viewBox="0 0 14 22" fill="none" xmlns="http://www.w3.org/2000/svg">
<path d="M5.04924 11.9029L3.74901 21.0045L12.8506 8.00223H9.20834L12.3039 1.5011H5.04924L1.14856 11.9029H5.04924Z" fill="#47C56A"/>
<path d="M3.74887 21.6547C3.65571 21.6544 3.56367 21.6343 3.47896 21.5955C3.39424 21.5568 3.3188 21.5003 3.25771 21.43C3.19661 21.3597 3.15128 21.2771 3.12476 21.1878C3.09824 21.0984 3.09115 21.0045 3.10395 20.9122L4.40418 11.8106C4.42866 11.6399 4.51995 11.486 4.65797 11.3826C4.79598 11.2792 4.96941 11.2349 5.14011 11.2593C5.3108 11.2838 5.46478 11.3751 5.56817 11.5131C5.67156 11.6511 5.71589 11.8246 5.6914 11.9953L4.77604 18.4015L11.6022 8.6524H8.94977C8.83908 8.65228 8.73026 8.62391 8.63361 8.56997C8.53696 8.51603 8.45568 8.4383 8.39748 8.34416C8.33927 8.25001 8.30606 8.14257 8.30101 8.032C8.29595 7.92143 8.3192 7.8114 8.36857 7.71233L11.1484 2.15127H5.50027L2.08718 11.2528L4.95546 11.2593C5.12789 11.2593 5.29324 11.3278 5.41516 11.4498C5.53708 11.5717 5.60558 11.737 5.60558 11.9095C5.60558 12.0819 5.53708 12.2472 5.41516 12.3692C5.29324 12.4911 5.12789 12.5596 4.95546 12.5596L1.14841 12.5531C1.04364 12.5522 0.940608 12.5261 0.848004 12.4771C0.7554 12.4281 0.675931 12.3575 0.616289 12.2714C0.556646 12.1852 0.518576 12.086 0.505284 11.9821C0.491992 11.8781 0.503867 11.7725 0.539908 11.6741L4.44059 1.27232C4.48713 1.14854 4.57032 1.04191 4.67904 0.966639C4.78776 0.891369 4.91686 0.851044 5.04909 0.851044H12.2003C12.311 0.851158 12.4198 0.87953 12.5165 0.933471C12.6131 0.987413 12.6944 1.06514 12.7526 1.15928C12.8108 1.25343 12.844 1.36087 12.8491 1.47144C12.8542 1.58201 12.8309 1.69204 12.7815 1.79111L10.0016 7.35217H12.8504C12.9694 7.35227 13.086 7.38499 13.1876 7.44676C13.2892 7.50852 13.3719 7.59698 13.4268 7.70249C13.4816 7.80801 13.5064 7.92654 13.4986 8.04519C13.4907 8.16385 13.4505 8.27808 13.3822 8.37545L4.28066 21.3777C4.22075 21.4632 4.14116 21.5329 4.0486 21.5811C3.95603 21.6294 3.85323 21.6546 3.74887 21.6547Z" fill="#195F56" stroke="#195F56" stroke-width="0.5"/>
</svg>
