<svg width="20" height="21" viewBox="0 0 20 21" fill="none" xmlns="http://www.w3.org/2000/svg">
<path d="M7.49996 10.1374C8.15923 10.1374 8.8037 9.94187 9.35186 9.5756C9.90002 9.20933 10.3273 8.68874 10.5796 8.07965C10.8319 7.47056 10.8979 6.80034 10.7692 6.15374C10.6406 5.50713 10.3232 4.91319 9.85698 4.44702C9.39081 3.98084 8.79686 3.66337 8.15026 3.53475C7.50366 3.40614 6.83344 3.47215 6.22435 3.72444C5.61526 3.97673 5.09467 4.40397 4.72839 4.95214C4.36212 5.5003 4.16663 6.14477 4.16663 6.80404C4.16663 7.68809 4.51782 8.53594 5.14294 9.16106C5.76806 9.78618 6.6159 10.1374 7.49996 10.1374ZM14.1666 11.804C14.6611 11.804 15.1444 11.6574 15.5556 11.3827C15.9667 11.108 16.2871 10.7176 16.4763 10.2607C16.6655 9.80393 16.7151 9.30127 16.6186 8.81631C16.5221 8.33136 16.284 7.8859 15.9344 7.53627C15.5848 7.18664 15.1393 6.94854 14.6544 6.85208C14.1694 6.75561 13.6667 6.80512 13.2099 6.99434C12.7531 7.18356 12.3627 7.50399 12.088 7.91511C11.8132 8.32624 11.6666 8.80959 11.6666 9.30404C11.6666 9.96708 11.93 10.603 12.3989 11.0718C12.8677 11.5406 13.5036 11.804 14.1666 11.804ZM17.5 17.6374C17.721 17.6374 17.9329 17.5496 18.0892 17.3933C18.2455 17.237 18.3333 17.0251 18.3333 16.804C18.3326 16.0252 18.1137 15.2621 17.7013 14.6014C17.2889 13.9407 16.6996 13.4088 16.0002 13.0661C15.3009 12.7234 14.5195 12.5835 13.7446 12.6624C12.9698 12.7413 12.2326 13.0357 11.6166 13.5124C10.8004 12.6993 9.76167 12.1462 8.63148 11.9227C7.50129 11.6993 6.33023 11.8154 5.26598 12.2567C4.20174 12.6979 3.29197 13.4443 2.65141 14.4019C2.01085 15.3595 1.66818 16.4853 1.66663 17.6374C1.66663 17.8584 1.75442 18.0703 1.9107 18.2266C2.06698 18.3829 2.27895 18.4707 2.49996 18.4707H12.5C12.721 18.4707 12.9329 18.3829 13.0892 18.2266C13.2455 18.0703 13.3333 17.8584 13.3333 17.6374" fill="#317166"/>
</svg>
