<svg width="55" height="55" viewBox="0 0 55 55" fill="none" xmlns="http://www.w3.org/2000/svg">
<path d="M10.2039 42.8421C12.6645 41.0088 15.3421 39.5614 18.2368 38.5C21.1316 37.4386 24.2193 36.9079 27.5 36.9079C30.7807 36.9079 33.8684 37.4386 36.7632 38.5C39.6579 39.5614 42.3355 41.0088 44.7961 42.8421C46.5811 40.864 48.0044 38.5724 49.0658 35.9671C50.1272 33.3618 50.6579 30.5395 50.6579 27.5C50.6579 21.0833 48.4029 15.619 43.8929 11.1071C39.381 6.5971 33.9167 4.3421 27.5 4.3421C21.0833 4.3421 15.62 6.5971 11.11 11.1071C6.59807 15.619 4.3421 21.0833 4.3421 27.5C4.3421 30.5395 4.87281 33.3618 5.93421 35.9671C6.99561 38.5724 8.41886 40.864 10.2039 42.8421ZM27.5 29.6711C24.8465 29.6711 22.6156 28.766 20.8074 26.9558C18.9972 25.1475 18.0921 22.9167 18.0921 20.2632C18.0921 17.6096 18.9972 15.3788 20.8074 13.5705C22.6156 11.7604 24.8465 10.8553 27.5 10.8553C30.1535 10.8553 32.3844 11.7604 34.1926 13.5705C36.0028 15.3788 36.9079 17.6096 36.9079 20.2632C36.9079 22.9167 36.0028 25.1475 34.1926 26.9558C32.3844 28.766 30.1535 29.6711 27.5 29.6711ZM27.5 55C23.6886 55 20.1068 54.2763 16.7547 52.8289C13.4007 51.3816 10.4934 49.4276 8.0329 46.9671C5.57237 44.5066 3.61842 41.5993 2.17105 38.2453C0.723684 34.8932 0 31.3114 0 27.5C0 23.6886 0.723684 20.1059 2.17105 16.7518C3.61842 13.3997 5.57237 10.4934 8.0329 8.0329C10.4934 5.57237 13.4007 3.61842 16.7547 2.17105C20.1068 0.723684 23.6886 0 27.5 0C31.3114 0 34.8941 0.723684 38.2482 2.17105C41.6003 3.61842 44.5066 5.57237 46.9671 8.0329C49.4276 10.4934 51.3816 13.3997 52.8289 16.7518C54.2763 20.1059 55 23.6886 55 27.5C55 31.3114 54.2763 34.8932 52.8289 38.2453C51.3816 41.5993 49.4276 44.5066 46.9671 46.9671C44.5066 49.4276 41.6003 51.3816 38.2482 52.8289C34.8941 54.2763 31.3114 55 27.5 55ZM27.5 50.6579C30.1053 50.6579 32.6266 50.2353 35.0639 49.39C37.4994 48.5467 39.6579 47.3772 41.5395 45.8816C39.6579 44.4342 37.5225 43.3004 35.1334 42.4803C32.7462 41.6601 30.2018 41.25 27.5 41.25C24.7982 41.25 22.2538 41.6485 19.8666 42.4455C17.4775 43.2406 15.3421 44.386 13.4605 45.8816C15.3421 47.3772 17.5006 48.5467 19.9361 49.39C22.3734 50.2353 24.8947 50.6579 27.5 50.6579ZM27.5 25.3289C28.9474 25.3289 30.1535 24.8465 31.1184 23.8816C32.0833 22.9167 32.5658 21.7105 32.5658 20.2632C32.5658 18.8158 32.0833 17.6096 31.1184 16.6447C30.1535 15.6798 28.9474 15.1974 27.5 15.1974C26.0526 15.1974 24.8465 15.6798 23.8816 16.6447C22.9167 17.6096 22.4342 18.8158 22.4342 20.2632C22.4342 21.7105 22.9167 22.9167 23.8816 23.8816C24.8465 24.8465 26.0526 25.3289 27.5 25.3289Z" fill="#3A906C"/>
</svg>
