<svg width="302" height="300" viewBox="0 0 302 300" fill="none" xmlns="http://www.w3.org/2000/svg">
<path d="M146.553 32.3203C209.599 32.3203 260.788 83.5094 260.788 146.556C260.788 209.603 209.599 260.792 146.553 260.792C83.5058 260.792 32.3168 209.603 32.3168 146.556C32.3168 83.5094 83.5058 32.3203 146.553 32.3203Z" fill="#3AB54A"/>
<path d="M83.1428 146.221L124.409 188.157L212.895 99.545" stroke="white" stroke-width="25.4976" stroke-linecap="round" stroke-linejoin="round"/>
<g opacity="0.793607">
<path d="M242.625 37.6458C248.55 37.6458 253.361 42.4565 253.361 48.3816C253.361 54.3067 248.55 59.1174 242.625 59.1174C236.7 59.1174 231.89 54.3067 231.89 48.3816C231.89 42.4565 236.7 37.6458 242.625 37.6458Z" stroke="#3AB54A" stroke-width="1.34198" stroke-linecap="round"/>
<path d="M245.645 43.0131C247.071 43.6841 248.078 45.8648 247.91 47.2067" stroke="#3AB54A" stroke-width="1.34198" stroke-linecap="round"/>
</g>
<g opacity="0.793607">
<path d="M276.63 206.262C278.85 211.756 276.191 218.018 270.698 220.238C265.204 222.458 258.942 219.799 256.722 214.306C254.502 208.812 257.161 202.549 262.654 200.33C268.148 198.11 274.411 200.769 276.63 206.262Z" stroke="#3AB54A" stroke-width="1.34198" stroke-linecap="round"/>
<path d="M272.785 211.073C272.697 212.646 271.052 214.396 269.745 214.743" stroke="#3AB54A" stroke-width="1.34198" stroke-linecap="round"/>
</g>
<g opacity="0.991743">
<path d="M23.9631 220.712C18.1412 221.813 12.5203 217.98 11.4193 212.158C10.3183 206.336 14.1513 200.715 19.9732 199.614C25.7951 198.513 31.416 202.346 32.517 208.168C33.618 213.99 29.785 219.611 23.9631 220.712Z" stroke="#3AB54A" stroke-width="1.34198" stroke-linecap="round"/>
<path d="M19.9988 215.999C18.4731 215.604 17.0789 213.649 16.9944 212.299" stroke="#3AB54A" stroke-width="1.34198" stroke-linecap="round"/>
</g>
<g opacity="0.793607">
<path d="M7.39185 51.444C3.31178 47.1475 3.4875 40.3464 7.78399 36.2663C12.0805 32.1862 18.8816 32.3619 22.9617 36.6584C27.0417 40.9549 26.866 47.756 22.5695 51.8361C18.273 55.9162 11.4719 55.7405 7.39185 51.444Z" stroke="#3AB54A" stroke-width="1.34198" stroke-linecap="round"/>
<path d="M9.20603 45.558C8.71074 44.062 9.59898 41.8305 10.6876 41.0281" stroke="#3AB54A" stroke-width="1.34198" stroke-linecap="round"/>
</g>
<path d="M289.013 2V23.0523" stroke="#3AB54A" stroke-width="2.68395" stroke-linecap="round"/>
<path d="M278.362 12.3168H300.001" stroke="#3AB54A" stroke-width="2.68395" stroke-linecap="round"/>
<path d="M281.799 4.68384L297.568 20.6198L281.799 4.68384Z" fill="#3AB54A"/>
<path d="M281.799 4.68384L297.568 20.6198" stroke="#3AB54A" stroke-width="2.68395" stroke-linecap="round"/>
<path d="M281.883 19.5297L297.19 4.22278L281.883 19.5297Z" fill="#3AB54A"/>
<path d="M281.883 19.5297L297.19 4.22278" stroke="#3AB54A" stroke-width="2.68395" stroke-linecap="round"/>
<path d="M19.92 277.463L20.9809 298.489" stroke="#3AB54A" stroke-width="2.68395" stroke-linecap="round"/>
<path d="M9.80069 288.304L31.4126 287.213" stroke="#3AB54A" stroke-width="2.68395" stroke-linecap="round"/>
<path d="M12.8501 280.507L29.4015 295.628L12.8501 280.507Z" fill="#3AB54A"/>
<path d="M12.8501 280.507L29.4015 295.628" stroke="#3AB54A" stroke-width="2.68395" stroke-linecap="round"/>
<path d="M13.6826 295.33L28.1986 279.271L13.6826 295.33Z" fill="#3AB54A"/>
<path d="M13.6826 295.33L28.1986 279.271" stroke="#3AB54A" stroke-width="2.68395" stroke-linecap="round"/>
</svg>
