<svg width="36" height="36" viewBox="0 0 36 36" fill="none" xmlns="http://www.w3.org/2000/svg">
<rect width="36" height="36" rx="8" fill="#1F7A55" fill-opacity="0.08"/>
<path d="M18 26C15.9556 26 14.1742 25.3221 12.656 23.9662C11.1372 22.611 10.2667 20.9185 10.0444 18.8889H11.8667C12.0741 20.4296 12.7591 21.7037 13.9218 22.7111C15.085 23.7185 16.4444 24.2222 18 24.2222C19.7333 24.2222 21.2036 23.6184 22.4107 22.4107C23.6184 21.2036 24.2222 19.7333 24.2222 18C24.2222 16.2667 23.6184 14.7961 22.4107 13.5884C21.2036 12.3813 19.7333 11.7778 18 11.7778C16.9778 11.7778 16.0222 12.0148 15.1333 12.4889C14.2444 12.963 13.4963 13.6148 12.8889 14.4444H15.3333V16.2222H10V10.8889H11.7778V12.9778C12.5333 12.0296 13.4557 11.2963 14.5449 10.7778C15.6335 10.2593 16.7852 10 18 10C19.1111 10 20.152 10.211 21.1227 10.6329C22.0927 11.0554 22.9372 11.6258 23.656 12.344C24.3742 13.0628 24.9446 13.9073 25.3671 14.8773C25.789 15.848 26 16.8889 26 18C26 19.1111 25.789 20.1517 25.3671 21.1218C24.9446 22.0924 24.3742 22.9369 23.656 23.6551C22.9372 24.3739 22.0927 24.9446 21.1227 25.3671C20.152 25.789 19.1111 26 18 26ZM20.4889 21.7333L17.1111 18.3556V13.5556H18.8889V17.6444L21.7333 20.4889L20.4889 21.7333Z" fill="#8DBC1A"/>
<rect x="0.5" y="0.5" width="35" height="35" rx="7.5" stroke="#1F7A55" stroke-opacity="0.1"/>
</svg>
