<svg width="14" height="15" viewBox="0 0 14 15" fill="none" xmlns="http://www.w3.org/2000/svg">
<path d="M6.33372 14.3497C5.75595 14.2942 5.20039 14.1553 4.66706 13.9331C4.13372 13.7109 3.63372 13.4109 3.16706 13.0331L4.23372 11.9331C4.55595 12.1664 4.89484 12.3553 5.25039 12.4997C5.60595 12.6442 5.96706 12.7442 6.33372 12.7997V14.3497ZM7.66706 14.3497V12.7997C8.8115 12.622 9.75595 12.1026 10.5004 11.2417C11.2448 10.3804 11.6171 9.38307 11.6171 8.24974C11.6171 6.98307 11.1837 5.89685 10.3171 4.99107C9.45039 4.08574 8.38372 3.63307 7.11706 3.63307H7.00039L7.96706 4.59974L6.90039 5.66641L4.11706 2.86641L6.90039 0.0664062L7.96706 1.16641L7.01706 2.11641H7.10039C7.94483 2.11641 8.73106 2.27752 9.45906 2.59974C10.1866 2.92196 10.8226 3.36085 11.3671 3.91641C11.9115 4.47196 12.3422 5.12196 12.6591 5.86641C12.9755 6.61085 13.1337 7.40529 13.1337 8.24974C13.1337 9.80529 12.6144 11.158 11.5757 12.3077C10.5366 13.458 9.23372 14.1386 7.66706 14.3497ZM2.20039 12.0664C1.83372 11.5886 1.53928 11.0857 1.31706 10.5577C1.09484 10.0302 0.955946 9.48307 0.900391 8.91641H2.45039C2.50595 9.28307 2.60328 9.64418 2.74239 9.99974C2.88106 10.3553 3.06706 10.6886 3.30039 10.9997L2.20039 12.0664ZM0.900391 7.58307C0.955946 6.99418 1.09484 6.43307 1.31706 5.89974C1.53928 5.36641 1.83372 4.87196 2.20039 4.41641L3.30039 5.46641C3.06706 5.78863 2.88106 6.12752 2.74239 6.48307C2.60328 6.83863 2.50595 7.2053 2.45039 7.58307H0.900391Z" fill="#328563"/>
</svg>