<svg width="20" height="18" viewBox="0 0 20 18" fill="none" xmlns="http://www.w3.org/2000/svg">
<path d="M20 2.79858C19.2477 3.12671 18.452 3.34478 17.6375 3.44608C18.4958 2.93687 19.1376 2.13054 19.4412 1.17983C18.6375 1.6565 17.7582 1.99218 16.8412 2.17233C16.2791 1.57206 15.5493 1.15473 14.7469 0.974577C13.9444 0.794422 13.1063 0.859764 12.3415 1.16211C11.5766 1.46446 10.9204 1.98985 10.458 2.67C9.99566 3.35016 9.74853 4.15365 9.74875 4.97608C9.74875 5.30108 9.77625 5.61358 9.84375 5.91108C8.2126 5.83111 6.6167 5.40777 5.16038 4.66873C3.70406 3.92969 2.42012 2.8916 1.3925 1.62233C0.866024 2.52466 0.703261 3.59372 0.937354 4.61184C1.17145 5.62996 1.78479 6.52057 2.6525 7.10233C2.00345 7.08493 1.36809 6.91173 0.8 6.59733V6.64233C0.801087 7.58912 1.12833 8.50663 1.72665 9.24041C2.32496 9.97419 3.15781 10.4794 4.085 10.6711C3.73423 10.7635 3.37273 10.8089 3.01 10.8061C2.74949 10.8107 2.48923 10.7872 2.23375 10.7361C2.49868 11.5499 3.00936 12.2615 3.69549 12.773C4.38162 13.2845 5.20945 13.5708 6.065 13.5923C4.61367 14.7274 2.82372 15.3431 0.98125 15.3411C0.645 15.3411 0.3225 15.3261 0 15.2848C1.87485 16.493 4.05959 17.1321 6.29 17.1248C13.835 17.1248 17.96 10.8748 17.96 5.45733C17.96 5.27608 17.9537 5.10108 17.945 4.92733C18.7537 4.34857 19.4501 3.62719 20 2.79858Z" fill="#F1F7F2"/>
</svg>