<svg width="45" height="44" viewBox="0 0 45 44" fill="none" xmlns="http://www.w3.org/2000/svg">
<rect x="0.48584" width="44" height="44" rx="12" fill="white" fill-opacity="0.1"/>
<g clip-path="url(#clip0_392_2031)">
<path d="M32.4858 16.4237C31.7335 16.7518 30.9378 16.9699 30.1233 17.0712C30.9817 16.562 31.6234 15.7557 31.9271 14.805C31.1234 15.2816 30.244 15.6173 29.3271 15.7975C28.7649 15.1972 28.0352 14.7799 27.2327 14.5997C26.4302 14.4195 25.5921 14.4849 24.8273 14.7872C24.0625 15.0896 23.4062 15.615 22.9439 16.2951C22.4815 16.9753 22.2344 17.7788 22.2346 18.6012C22.2346 18.9262 22.2621 19.2387 22.3296 19.5362C20.6984 19.4562 19.1025 19.0329 17.6462 18.2939C16.1899 17.5548 14.906 16.5167 13.8783 15.2475C13.3519 16.1498 13.1891 17.2188 13.4232 18.237C13.6573 19.2551 14.2706 20.1457 15.1383 20.7275C14.4893 20.7101 13.8539 20.5369 13.2858 20.2225V20.2675C13.2869 21.2142 13.6142 22.1318 14.2125 22.8655C14.8108 23.5993 15.6437 24.1046 16.5708 24.2962C16.2201 24.3886 15.8586 24.434 15.4958 24.4312C15.2353 24.4358 14.9751 24.4124 14.7196 24.3612C14.9845 25.175 15.4952 25.8866 16.1813 26.3981C16.8675 26.9097 17.6953 27.1959 18.5508 27.2175C17.0995 28.3525 15.3096 28.9682 13.4671 28.9662C13.1308 28.9662 12.8083 28.9512 12.4858 28.91C14.3607 30.1181 16.5454 30.7572 18.7758 30.75C26.3208 30.75 30.4458 24.5 30.4458 19.0825C30.4458 18.9012 30.4396 18.7262 30.4308 18.5525C31.2395 17.9737 31.9359 17.2523 32.4858 16.4237V16.4237Z" fill="white"/>
</g>
<rect x="0.98584" y="0.5" width="43" height="43" rx="11.5" stroke="white" stroke-opacity="0.25"/>
<defs>
<clipPath id="clip0_392_2031">
<rect width="20" height="20" fill="white" transform="translate(12.4858 12)"/>
</clipPath>
</defs>
</svg>
