<svg width="25" height="22" viewBox="0 0 25 22" fill="none" xmlns="http://www.w3.org/2000/svg">
<path d="M1.26953 12V17.4545C1.26953 18.3225 1.61434 19.155 2.22809 19.7687C2.84185 20.3825 3.67428 20.7273 4.54226 20.7273H19.815C20.683 20.7273 21.5154 20.3825 22.1292 19.7687C22.7429 19.155 23.0877 18.3225 23.0877 17.4545V12H1.26953ZM17.6332 16.3636C17.4174 16.3636 17.2065 16.2997 17.0271 16.1798C16.8477 16.0599 16.7079 15.8895 16.6253 15.6902C16.5427 15.4909 16.5211 15.2715 16.5632 15.0599C16.6053 14.8483 16.7092 14.6539 16.8618 14.5013C17.0143 14.3488 17.2087 14.2449 17.4203 14.2028C17.632 14.1607 17.8513 14.1823 18.0506 14.2649C18.25 14.3474 18.4204 14.4873 18.5402 14.6667C18.6601 14.846 18.7241 15.057 18.7241 15.2727C18.7241 15.5621 18.6091 15.8395 18.4046 16.0441C18.2 16.2487 17.9225 16.3636 17.6332 16.3636Z" fill="#47C56A"/>
<path d="M19.8148 21.8182H4.5421C3.38479 21.8182 2.27489 21.3584 1.45655 20.5401C0.638206 19.7218 0.178467 18.6119 0.178467 17.4545V4.36364C0.178467 3.20633 0.638206 2.09642 1.45655 1.27808C2.27489 0.459739 3.38479 0 4.5421 0H15.4512C16.6085 0 17.7184 0.459739 18.5368 1.27808C19.3551 2.09642 19.8148 3.20633 19.8148 4.36364C20.9721 4.36364 22.082 4.82338 22.9004 5.64172C23.7187 6.46006 24.1785 7.56996 24.1785 8.72727V17.4545C24.1785 18.6119 23.7187 19.7218 22.9004 20.5401C22.082 21.3584 20.9721 21.8182 19.8148 21.8182ZM4.5421 2.18182C3.96345 2.18182 3.40849 2.41169 2.99932 2.82086C2.59015 3.23003 2.36029 3.78498 2.36029 4.36364V17.4545C2.36029 18.0332 2.59015 18.5882 2.99932 18.9973C3.40849 19.4065 3.96345 19.6364 4.5421 19.6364H19.8148C20.3935 19.6364 20.9484 19.4065 21.3576 18.9973C21.7668 18.5882 21.9966 18.0332 21.9966 17.4545V8.72727C21.9966 8.14862 21.7668 7.59366 21.3576 7.18449C20.9484 6.77532 20.3935 6.54545 19.8148 6.54545H6.72392C6.43459 6.54545 6.15712 6.43052 5.95253 6.22593C5.74795 6.02135 5.63301 5.74387 5.63301 5.45455C5.63301 5.16522 5.74795 4.88774 5.95253 4.68316C6.15712 4.47857 6.43459 4.36364 6.72392 4.36364H17.633C17.633 3.78498 17.4031 3.23003 16.994 2.82086C16.5848 2.41169 16.0298 2.18182 15.4512 2.18182H4.5421Z" fill="#144E46"/>
</svg>
