<svg width="22" height="21" viewBox="0 0 22 21" fill="none" xmlns="http://www.w3.org/2000/svg">
<path d="M18 20.851H4C2.93913 20.851 1.92172 20.4296 1.17157 19.6795C0.421427 18.9293 0 17.9119 0 16.851V4.85104C0 3.79018 0.421427 2.77276 1.17157 2.02262C1.92172 1.27247 2.93913 0.851044 4 0.851044H14C15.0609 0.851044 16.0783 1.27247 16.8284 2.02262C17.5786 2.77276 18 3.79018 18 4.85104C19.0609 4.85104 20.0783 5.27247 20.8284 6.02262C21.5786 6.77276 22 7.79018 22 8.85104V16.851C22 17.9119 21.5786 18.9293 20.8284 19.6795C20.0783 20.4296 19.0609 20.851 18 20.851ZM4 2.85104C3.46957 2.85104 2.96086 3.06176 2.58579 3.43683C2.21071 3.8119 2 4.32061 2 4.85104V16.851C2 17.3815 2.21071 17.8902 2.58579 18.2653C2.96086 18.6403 3.46957 18.851 4 18.851H18C18.5304 18.851 19.0391 18.6403 19.4142 18.2653C19.7893 17.8902 20 17.3815 20 16.851V8.85104C20 8.32061 19.7893 7.8119 19.4142 7.43683C19.0391 7.06176 18.5304 6.85104 18 6.85104H6C5.73478 6.85104 5.48043 6.74569 5.29289 6.55815C5.10536 6.37061 5 6.11626 5 5.85104C5 5.58583 5.10536 5.33147 5.29289 5.14394C5.48043 4.9564 5.73478 4.85104 6 4.85104H16C16 4.32061 15.7893 3.8119 15.4142 3.43683C15.0391 3.06176 14.5304 2.85104 14 2.85104H4Z" fill="#195F56"/>
<circle cx="16.3469" cy="14.976" r="1.83333" fill="#F5FFF5"/>
</svg>
