<svg width="22" height="22" viewBox="0 0 22 22" fill="none" xmlns="http://www.w3.org/2000/svg">
<g clip-path="url(#clip0_392_1737)">
<path d="M21.9987 16.4388C21.9987 16.5593 21.995 16.8205 21.9878 17.0223C21.9701 17.5161 21.9309 18.1532 21.8717 18.4435C21.7828 18.8798 21.6485 19.2916 21.4734 19.6343C21.2662 20.0397 21.0019 20.4029 20.6879 20.7163C20.3746 21.0291 20.0118 21.2924 19.6069 21.4987C19.2624 21.6743 18.8481 21.8086 18.4093 21.8972C18.1219 21.9553 17.4895 21.9936 16.9989 22.0111C16.7969 22.0183 16.5356 22.0219 16.4156 22.0219L5.58261 22.0202C5.46215 22.0202 5.20094 22.0165 4.99914 22.0093C4.50537 21.9916 3.86822 21.9524 3.57791 21.8932C3.14164 21.8043 2.72985 21.67 2.38713 21.4949C1.98168 21.2877 1.61853 21.0234 1.3051 20.7094C0.992283 20.3961 0.729057 20.0333 0.522742 19.6285C0.347129 19.2839 0.212766 18.8696 0.124186 18.4308C0.0661777 18.1434 0.0277852 17.511 0.0103184 17.0204C0.00314258 16.8184 -0.000488281 16.5571 -0.000488281 16.4371L0.00123047 5.60412C0.00123047 5.48366 0.0049043 5.22243 0.0121445 5.02062C0.0298691 4.52685 0.0689922 3.88971 0.128182 3.59941C0.217148 3.16315 0.351426 2.75136 0.526545 2.40862C0.733719 2.00319 0.997998 1.64002 1.31199 1.32658C1.62532 1.01379 1.98815 0.750541 2.39298 0.544205C2.73752 0.368635 3.15189 0.234271 3.59063 0.145691C3.87802 0.0876621 4.51041 0.0492695 5.00103 0.0318242C5.20303 0.024627 5.46434 0.0209961 5.58431 0.0209961L16.4173 0.0227363C16.5378 0.0227363 16.799 0.0264102 17.0008 0.0336504C17.4946 0.051375 18.1317 0.090498 18.422 0.149687C18.8583 0.238654 19.2701 0.372932 19.6128 0.548051C20.0182 0.755225 20.3814 1.0195 20.6948 1.3335C21.0076 1.64683 21.2709 2.00963 21.4772 2.41448C21.6528 2.75903 21.7872 3.17338 21.8757 3.61211C21.9338 3.89953 21.9721 4.5319 21.9896 5.02254C21.9968 5.22453 22.0004 5.48583 22.0004 5.60584L21.9987 16.4388V16.4388Z" fill="url(#paint0_linear_392_1737)"/>
<path d="M16.8288 5.22605C15.3394 3.73531 13.3585 2.91392 11.248 2.91309C6.89951 2.91309 3.36037 6.45088 3.35863 10.7994C3.35807 12.1894 3.72135 13.5463 4.41173 14.7423L3.29248 18.8292L7.47474 17.7325C8.62707 18.3608 9.92443 18.6919 11.2449 18.6925H11.2481C15.5962 18.6925 19.1356 15.1542 19.1374 10.8057C19.1382 8.69833 18.3184 6.71679 16.8288 5.22605V5.22605ZM11.2481 17.3604H11.2454C10.0688 17.36 8.91473 17.044 7.90795 16.4467L7.66848 16.3047L5.18667 16.9555L5.84912 14.5365L5.69317 14.2885C5.03678 13.2448 4.6901 12.0385 4.69062 10.7999C4.69204 7.18562 7.63366 4.24512 11.2506 4.24512C13.0021 4.24578 14.6485 4.92856 15.8865 6.16758C17.1245 7.40661 17.806 9.05362 17.8053 10.8052C17.8039 14.4198 14.8623 17.3604 11.2481 17.3604V17.3604ZM14.8449 12.4509C14.6477 12.3523 13.6786 11.8756 13.4979 11.8098C13.3172 11.744 13.1858 11.7111 13.0544 11.9084C12.923 12.1057 12.5452 12.5496 12.4302 12.6811C12.3152 12.8126 12.2002 12.8291 12.0031 12.7304C11.8059 12.6318 11.1708 12.4237 10.4178 11.7523C9.83185 11.2299 9.4362 10.5845 9.32121 10.3872C9.20623 10.1899 9.30899 10.0832 9.40766 9.98497C9.49633 9.89669 9.60478 9.75481 9.70335 9.63974C9.8019 9.52469 9.83477 9.44245 9.90047 9.31094C9.96619 9.17941 9.93332 9.06432 9.88404 8.96569C9.83477 8.86705 9.44051 7.89707 9.27624 7.50251C9.11625 7.11824 8.9537 7.17024 8.8327 7.1642C8.71784 7.15848 8.58629 7.15728 8.4549 7.15728C8.3235 7.15728 8.10992 7.20659 7.92924 7.40388C7.74855 7.60117 7.23931 8.07793 7.23931 9.04788C7.23931 10.0178 7.94565 10.9549 8.04422 11.0864C8.14279 11.218 9.43424 13.2085 11.4117 14.0621C11.882 14.2651 12.2492 14.3863 12.5355 14.4772C13.0077 14.6271 13.4375 14.606 13.7772 14.5553C14.1559 14.4987 14.9434 14.0785 15.1077 13.6182C15.272 13.1579 15.272 12.7633 15.2227 12.6811C15.1734 12.5989 15.042 12.5496 14.8449 12.4509V12.4509Z" fill="white"/>
</g>
<defs>
<linearGradient id="paint0_linear_392_1737" x1="11" y1="0.0209961" x2="11" y2="22.022" gradientUnits="userSpaceOnUse">
<stop stop-color="#61FD7D"/>
<stop offset="1" stop-color="#2BB826"/>
</linearGradient>
<clipPath id="clip0_392_1737">
<rect width="22" height="22" fill="white"/>
</clipPath>
</defs>
</svg>
