<svg width="24" height="25" viewBox="0 0 24 25" fill="none" xmlns="http://www.w3.org/2000/svg">
<mask id="mask0_200_2968" style="mask-type:alpha" maskUnits="userSpaceOnUse" x="0" y="0" width="24" height="25">
<rect y="0.826172" width="24" height="24" fill="#D9D9D9"/>
</mask>
<g mask="url(#mask0_200_2968)">
<path d="M10.6 17.4262L17.65 10.3762L16.25 8.97617L10.6 14.6262L7.75 11.7762L6.35 13.1762L10.6 17.4262ZM12 22.8262C10.6167 22.8262 9.31667 22.5635 8.1 22.0382C6.88333 21.5135 5.825 20.8012 4.925 19.9012C4.025 19.0012 3.31267 17.9428 2.788 16.7262C2.26267 15.5095 2 14.2095 2 12.8262C2 11.4428 2.26267 10.1428 2.788 8.92617C3.31267 7.70951 4.025 6.65117 4.925 5.75117C5.825 4.85117 6.88333 4.13851 8.1 3.61317C9.31667 3.08851 10.6167 2.82617 12 2.82617C13.3833 2.82617 14.6833 3.08851 15.9 3.61317C17.1167 4.13851 18.175 4.85117 19.075 5.75117C19.975 6.65117 20.6873 7.70951 21.212 8.92617C21.7373 10.1428 22 11.4428 22 12.8262C22 14.2095 21.7373 15.5095 21.212 16.7262C20.6873 17.9428 19.975 19.0012 19.075 19.9012C18.175 20.8012 17.1167 21.5135 15.9 22.0382C14.6833 22.5635 13.3833 22.8262 12 22.8262ZM12 20.8262C14.2333 20.8262 16.125 20.0512 17.675 18.5012C19.225 16.9512 20 15.0595 20 12.8262C20 10.5928 19.225 8.70117 17.675 7.15117C16.125 5.60117 14.2333 4.82617 12 4.82617C9.76667 4.82617 7.875 5.60117 6.325 7.15117C4.775 8.70117 4 10.5928 4 12.8262C4 15.0595 4.775 16.9512 6.325 18.5012C7.875 20.0512 9.76667 20.8262 12 20.8262Z" fill="url(#paint0_linear_200_2968)"/>
</g>
<defs>
<linearGradient id="paint0_linear_200_2968" x1="16.0571" y1="2.82617" x2="16.0571" y2="22.8262" gradientUnits="userSpaceOnUse">
<stop stop-color="#8FC175"/>
<stop offset="1" stop-color="#3A906C"/>
</linearGradient>
</defs>
</svg>
