<svg width="20" height="24" viewBox="0 0 20 24" fill="none" xmlns="http://www.w3.org/2000/svg">
<g clip-path="url(#clip0_200_2988)">
<path d="M17.6571 0.147705H2.34298C2.03455 0.148443 1.72928 0.209924 1.44462 0.328639C1.15995 0.447354 0.901453 0.620978 0.683887 0.839595C0.466321 1.05821 0.293947 1.31754 0.176606 1.60278C0.0592658 1.88802 -0.000742713 2.19357 7.13293e-06 2.502V17.9534C-0.000752989 18.2618 0.0592459 18.5674 0.176578 18.8526C0.29391 19.1379 0.466277 19.3972 0.683837 19.6158C0.901396 19.8344 1.15989 20.0081 1.44455 20.1268C1.72921 20.2455 2.03447 20.307 2.3429 20.3077H15.3029L14.6971 18.1934L16.16 19.5534L17.5428 20.8334L20 23.0048V2.502C20.0008 2.19358 19.9408 1.88802 19.8234 1.60279C19.7061 1.31755 19.5337 1.05822 19.3162 0.8396C19.0986 0.620981 18.8401 0.447357 18.5555 0.328641C18.2708 0.209925 17.9655 0.148443 17.6571 0.147705V0.147705ZM13.2457 15.0735C13.2457 15.0735 12.8343 14.582 12.4914 14.1477C13.9886 13.7248 14.56 12.7877 14.56 12.7877C14.1488 13.0614 13.7079 13.2876 13.2457 13.4619C12.7141 13.6889 12.158 13.8538 11.5886 13.9534C10.6098 14.1336 9.60598 14.1297 8.6286 13.942C8.05491 13.8297 7.49268 13.6652 6.94891 13.4506C6.66222 13.3403 6.38343 13.2105 6.11454 13.062C6.08032 13.0391 6.04602 13.0277 6.01173 13.0048C5.99454 12.9963 5.97905 12.9847 5.96602 12.9706C5.76032 12.8563 5.64571 12.7763 5.64571 12.7763C5.64571 12.7763 6.1943 13.6904 7.64571 14.1248C7.3029 14.5592 6.88009 15.0734 6.88009 15.0734C4.3543 14.9934 3.39438 13.3363 3.39438 13.3363C3.39438 9.65661 5.04009 6.67341 5.04009 6.67341C6.68579 5.43903 8.25149 5.47341 8.25149 5.47341L8.36579 5.6106C6.3086 6.20474 5.36001 7.10771 5.36001 7.10771C5.36001 7.10771 5.61141 6.9706 6.03423 6.7763C7.25712 6.23911 8.2286 6.0906 8.6286 6.0563C8.69257 6.04302 8.75759 6.03536 8.8229 6.03341C9.58876 5.93364 10.3638 5.92598 11.1315 6.0106C12.3387 6.14847 13.5073 6.52117 14.5714 7.10771C14.5714 7.10771 13.6686 6.2506 11.7257 5.6563L11.8857 5.47349C11.8857 5.47349 13.4514 5.43911 15.0971 6.67349C15.0971 6.67349 16.7429 9.6563 16.7429 13.3363C16.7429 13.3363 15.7714 14.9934 13.2457 15.0734V15.0735ZM7.93141 9.7363C7.28001 9.7363 6.76579 10.3077 6.76579 11.0048C6.76579 11.7019 7.29141 12.2734 7.93141 12.2734C8.5829 12.2734 9.09712 11.702 9.09712 11.0048C9.1086 10.3077 8.5829 9.7363 7.93149 9.7363M12.1029 9.7363C11.4514 9.7363 10.9371 10.3077 10.9371 11.0048C10.9371 11.7019 11.4629 12.2734 12.1029 12.2734C12.7543 12.2734 13.2685 11.702 13.2685 11.0048C13.2685 10.3076 12.7543 9.7363 12.1029 9.7363Z" fill="#7289DA"/>
</g>
<defs>
<clipPath id="clip0_200_2988">
<rect width="20" height="22.8571" fill="white" transform="translate(0 0.147705)"/>
</clipPath>
</defs>
</svg>
