<svg width="22" height="23" viewBox="0 0 22 23" fill="none" xmlns="http://www.w3.org/2000/svg">
<g clip-path="url(#clip0_200_2997)">
<path d="M17.062 0.576172H4.938C2.21082 0.576172 0 2.78699 0 5.51417V17.6382C0 20.3654 2.21082 22.5762 4.938 22.5762H17.062C19.7892 22.5762 22 20.3654 22 17.6382V5.51417C22 2.78699 19.7892 0.576172 17.062 0.576172Z" fill="url(#paint0_linear_200_2997)"/>
<path d="M7.62047 4.38647H14.4788C14.6312 4.46268 14.8598 4.46268 15.0122 4.53888C15.681 4.64727 16.3063 4.94003 16.8179 5.38427C17.3294 5.82851 17.7069 6.40661 17.908 7.0536C18.0205 7.42644 18.0971 7.80921 18.1366 8.19666V14.9026C18.0276 15.7525 17.7138 16.5632 17.2221 17.2649C16.8003 17.7536 16.2715 18.1385 15.6768 18.3896C15.082 18.6407 14.4374 18.7513 13.793 18.7128H8.0777C7.05775 18.7623 6.05491 18.437 5.25816 17.7983C4.77366 17.3797 4.39131 16.8558 4.14036 16.2668C3.88942 15.6777 3.77651 15.039 3.81029 14.3996V9.06538C3.7977 8.68278 3.82323 8.29987 3.88649 7.92233C3.96344 7.14108 4.28467 6.40395 4.80451 5.81571C5.32436 5.22746 6.01638 4.81802 6.78223 4.64557L7.62047 4.38647ZM5.25816 11.6258V14.5978C5.22567 14.9762 5.2763 15.3572 5.4065 15.714C5.53671 16.0709 5.74334 16.3949 6.01194 16.6635C6.28053 16.9321 6.60459 17.1388 6.96142 17.269C7.31826 17.3992 7.69924 17.4498 8.0777 17.4173C10.059 17.4935 12.0403 17.4935 14.0216 17.4173C15.7743 17.4173 16.7649 16.3505 16.8411 14.5978C16.9173 12.6165 16.9173 10.6352 16.8411 8.65388C16.8609 8.27841 16.8015 7.90299 16.6667 7.55196C16.532 7.20094 16.325 6.88215 16.0592 6.61629C15.7933 6.35043 15.4745 6.14343 15.1235 6.00872C14.7725 5.87401 14.397 5.8146 14.0216 5.83434C12.0403 5.75814 10.059 5.75814 8.0777 5.83434C7.69924 5.80185 7.31826 5.85248 6.96142 5.98269C6.60459 6.11289 6.28053 6.31953 6.01194 6.58812C5.74334 6.85671 5.53671 7.18077 5.4065 7.53761C5.2763 7.89444 5.22567 8.27543 5.25816 8.65388V11.6258Z" fill="white"/>
<path d="M7.34619 11.6563C7.34821 10.6666 7.74225 9.71807 8.44207 9.01824C9.14189 8.31842 10.0905 7.92438 11.0802 7.92236C12.0644 7.94186 13.0028 8.34152 13.6989 9.03759C14.395 9.73367 14.7947 10.6721 14.8142 11.6563C14.8121 12.646 14.4181 13.5946 13.7183 14.2944C13.0184 14.9943 12.0699 15.3883 11.0802 15.3903C10.096 15.3708 9.1575 14.9712 8.46142 14.2751C7.76534 13.579 7.36569 12.6405 7.34619 11.6563ZM11.0802 9.29403C10.6173 9.2865 10.1628 9.41735 9.77478 9.66982C9.38678 9.92228 9.083 10.2849 8.90239 10.7111C8.72177 11.1373 8.67254 11.6077 8.761 12.0621C8.84946 12.5165 9.07159 12.9341 9.39891 13.2614C9.72623 13.5887 10.1438 13.8108 10.5982 13.8993C11.0526 13.9878 11.523 13.9385 11.9492 13.7579C12.3755 13.5773 12.738 13.2735 12.9905 12.8855C13.243 12.4975 13.3738 12.043 13.3663 11.5801C13.3663 10.9738 13.1254 10.3923 12.6967 9.96362C12.268 9.53489 11.6865 9.29403 11.0802 9.29403Z" fill="white"/>
<path d="M13.9759 7.76997C13.9716 7.64874 13.9924 7.52792 14.0368 7.41505C14.0813 7.30218 14.1485 7.19967 14.2342 7.11389C14.32 7.02811 14.4225 6.96091 14.5354 6.91646C14.6483 6.87201 14.7691 6.85127 14.8903 6.85553C15.1276 6.87157 15.351 6.97307 15.5191 7.14121C15.6872 7.30934 15.7887 7.53273 15.8048 7.76997C15.8048 8.01249 15.7084 8.24509 15.5369 8.41658C15.3654 8.58807 15.1329 8.68441 14.8903 8.68441C14.6478 8.68441 14.4152 8.58807 14.2437 8.41658C14.0722 8.24509 13.9759 8.01249 13.9759 7.76997Z" fill="white"/>
</g>
<defs>
<linearGradient id="paint0_linear_200_2997" x1="-1.40215" y1="23.7954" x2="24.5071" y2="-1.7328" gradientUnits="userSpaceOnUse">
<stop stop-color="#FED576"/>
<stop offset="0.26" stop-color="#F47133"/>
<stop offset="0.61" stop-color="#BC3081"/>
<stop offset="1" stop-color="#4C63D2"/>
</linearGradient>
<clipPath id="clip0_200_2997">
<rect width="22" height="22" fill="white" transform="translate(0 0.576172)"/>
</clipPath>
</defs>
</svg>
