<svg width="20" height="21" viewBox="0 0 20 21" fill="none" xmlns="http://www.w3.org/2000/svg">
<path d="M20 4.5C19.2477 4.82813 18.452 5.0462 17.6375 5.1475C18.4958 4.63828 19.1376 3.83196 19.4412 2.88125C18.6375 3.35792 17.7582 3.6936 16.8412 3.87375C16.2791 3.27347 15.5493 2.85615 14.7469 2.67599C13.9444 2.49584 13.1063 2.56118 12.3415 2.86353C11.5766 3.16588 10.9204 3.69126 10.458 4.37142C9.99566 5.05158 9.74853 5.85507 9.74875 6.6775C9.74875 7.0025 9.77625 7.315 9.84375 7.6125C8.2126 7.53253 6.6167 7.10918 5.16038 6.37015C3.70406 5.63111 2.42012 4.59302 1.3925 3.32375C0.866024 4.22607 0.703261 5.29514 0.937354 6.31325C1.17145 7.33137 1.78479 8.22199 2.6525 8.80375C2.00345 8.78634 1.36809 8.61314 0.8 8.29875V8.34375C0.801087 9.29054 1.12833 10.208 1.72665 10.9418C2.32496 11.6756 3.15781 12.1808 4.085 12.3725C3.73423 12.4649 3.37273 12.5103 3.01 12.5075C2.74949 12.5121 2.48923 12.4887 2.23375 12.4375C2.49868 13.2513 3.00936 13.9629 3.69549 14.4744C4.38162 14.986 5.20945 15.2722 6.065 15.2937C4.61367 16.4288 2.82372 17.0445 0.98125 17.0425C0.645 17.0425 0.3225 17.0275 0 16.9862C1.87485 18.1944 4.05959 18.8335 6.29 18.8263C13.835 18.8263 17.96 12.5763 17.96 7.15875C17.96 6.9775 17.9538 6.8025 17.945 6.62875C18.7537 6.04998 19.4501 5.3286 20 4.5Z" fill="#03A9F4"/>
</svg>
