<svg width="20" height="21" viewBox="0 0 20 21" fill="none" xmlns="http://www.w3.org/2000/svg">
<path d="M7.50008 10.1374C8.15935 10.1374 8.80382 9.94187 9.35198 9.5756C9.90015 9.20933 10.3274 8.68874 10.5797 8.07965C10.832 7.47056 10.898 6.80034 10.7694 6.15374C10.6407 5.50713 10.3233 4.91319 9.8571 4.44702C9.39093 3.98084 8.79699 3.66337 8.15038 3.53475C7.50378 3.40614 6.83356 3.47215 6.22447 3.72444C5.61538 3.97673 5.09479 4.40397 4.72852 4.95214C4.36224 5.5003 4.16675 6.14477 4.16675 6.80404C4.16675 7.68809 4.51794 8.53594 5.14306 9.16106C5.76818 9.78618 6.61603 10.1374 7.50008 10.1374ZM14.1667 11.804C14.6612 11.804 15.1445 11.6574 15.5557 11.3827C15.9668 11.108 16.2872 10.7176 16.4764 10.2607C16.6657 9.80393 16.7152 9.30127 16.6187 8.81631C16.5222 8.33136 16.2841 7.8859 15.9345 7.53627C15.5849 7.18664 15.1394 6.94854 14.6545 6.85208C14.1695 6.75561 13.6669 6.80512 13.21 6.99434C12.7532 7.18356 12.3628 7.50399 12.0881 7.91511C11.8134 8.32624 11.6667 8.80959 11.6667 9.30404C11.6667 9.96708 11.9301 10.603 12.399 11.0718C12.8678 11.5406 13.5037 11.804 14.1667 11.804ZM17.5001 17.6374C17.7211 17.6374 17.9331 17.5496 18.0893 17.3933C18.2456 17.237 18.3334 17.0251 18.3334 16.804C18.3327 16.0252 18.1138 15.2621 17.7014 14.6014C17.289 13.9407 16.6997 13.4088 16.0004 13.0661C15.301 12.7234 14.5196 12.5835 13.7447 12.6624C12.9699 12.7413 12.2327 13.0357 11.6167 13.5124C10.8005 12.6993 9.76179 12.1462 8.6316 11.9227C7.50141 11.6993 6.33035 11.8154 5.2661 12.2567C4.20186 12.6979 3.29209 13.4443 2.65153 14.4019C2.01097 15.3595 1.66831 16.4853 1.66675 17.6374C1.66675 17.8584 1.75455 18.0703 1.91083 18.2266C2.06711 18.3829 2.27907 18.4707 2.50008 18.4707H12.5001C12.7211 18.4707 12.9331 18.3829 13.0893 18.2266C13.2456 18.0703 13.3334 17.8584 13.3334 17.6374" fill="#317166"/>
</svg>
